<?xml version="1.0" standalone="no"?>
<!DOCTYPE svg PUBLIC "-//W3C//DTD SVG 20010904//EN"
 "http://www.w3.org/TR/2001/REC-SVG-20010904/DTD/svg10.dtd">
<svg version="1.0" xmlns="http://www.w3.org/2000/svg"
 width="260.000000pt" height="260.000000pt" viewBox="0 0 260.000000 260.000000"
 preserveAspectRatio="xMidYMid meet">
<metadata>
Created by potrace 1.11, written by Peter Selinger 2001-2013
</metadata>
<g transform="translate(0.000000,260.000000) scale(0.100000,-0.100000)"
fill="#000000" stroke="none">
<path d="M2261 2521 c-1 -8 -4 -11 -7 -8 -14 14 -53 -15 -137 -102 -92 -95
-107 -111 -102 -111 5 0 -28 -40 -57 -72 -10 -10 -16 -18 -13 -18 3 0 -6 -12
-19 -27 -46 -52 -62 -72 -82 -98 -18 -26 -36 -48 -84 -104 -11 -13 -20 -28
-20 -33 0 -5 -4 -6 -10 -3 -5 3 -10 -1 -10 -9 0 -9 -4 -16 -10 -16 -5 0 -10
-7 -10 -15 0 -8 -5 -15 -10 -15 -6 0 -15 -11 -22 -25 -6 -13 -15 -22 -19 -19
-5 3 -9 -1 -9 -8 0 -8 -8 -21 -17 -30 -10 -8 -29 -31 -43 -49 -14 -18 -33 -41
-42 -51 -10 -10 -15 -18 -12 -18 4 0 -5 -12 -19 -26 -15 -15 -43 -48 -64 -75
-20 -27 -41 -49 -45 -49 -4 0 -8 -6 -8 -14 0 -8 -3 -16 -8 -18 -4 -1 -25 -25
-47 -53 -22 -27 -44 -52 -48 -54 -5 -2 -12 -14 -18 -28 -5 -13 -13 -21 -19
-18 -5 3 -10 0 -10 -7 0 -8 -15 -30 -32 -50 -18 -20 -44 -51 -58 -69 -14 -18
-35 -42 -47 -53 -13 -11 -23 -24 -23 -29 0 -4 -6 -14 -13 -21 -6 -7 -25 -30
-42 -51 -16 -21 -47 -58 -67 -84 -21 -25 -38 -49 -38 -53 0 -5 -7 -8 -16 -8
-8 0 -13 -4 -10 -9 3 -5 -1 -12 -10 -15 -9 -4 -14 -9 -11 -12 3 -3 -8 -19 -24
-35 -16 -16 -26 -29 -22 -29 4 0 -4 -11 -19 -24 -16 -13 -28 -27 -28 -31 0 -7
-16 -26 -67 -80 -13 -13 -23 -28 -23 -32 0 -4 -19 -27 -41 -51 -22 -23 -37
-42 -33 -42 4 0 -6 -12 -22 -27 -16 -15 -28 -31 -26 -35 1 -4 -2 -8 -8 -8 -5
0 -10 -7 -10 -16 0 -8 -5 -12 -10 -9 -6 3 -10 3 -10 -2 0 -4 -10 -20 -23 -34
-12 -15 -35 -44 -52 -65 -16 -22 -40 -49 -52 -61 -12 -13 -20 -23 -17 -23 3 0
-1 -6 -8 -14 -7 -7 -29 -32 -48 -56 -19 -23 -42 -50 -50 -60 -8 -10 -26 -33
-40 -51 -14 -17 -33 -40 -42 -50 -10 -11 -13 -21 -8 -24 6 -4 13 1 16 9 3 9
11 13 17 9 5 -3 7 -2 4 4 -3 5 4 16 15 24 12 8 36 29 55 47 18 19 33 31 33 28
0 -2 20 15 45 40 25 24 45 42 45 39 0 -3 15 10 34 30 19 19 37 35 41 35 3 0
24 18 45 40 22 23 40 39 40 36 0 -2 15 10 33 27 18 18 60 55 92 82 32 28 68
60 80 72 13 12 26 19 29 16 3 -4 6 1 6 10 0 9 4 17 8 17 8 0 70 52 138 117 19
17 34 29 34 27 0 -2 19 14 41 36 23 22 45 40 50 40 5 0 9 8 9 17 0 9 3 14 6
11 3 -4 13 1 23 10 47 45 80 70 85 65 3 -4 6 -1 6 6 0 14 39 50 55 51 10 0 14
-14 17 -57 1 -7 4 -13 7 -13 3 0 7 -15 8 -33 3 -32 10 -72 13 -72 2 0 6 -25
14 -87 2 -21 7 -42 10 -47 4 -5 8 -22 10 -38 3 -15 7 -39 10 -53 2 -14 7 -41
10 -61 3 -20 8 -42 10 -50 8 -20 17 -67 23 -114 2 -22 8 -42 11 -45 4 -3 7
-14 8 -25 1 -19 6 -47 19 -110 4 -16 8 -39 10 -50 2 -11 6 -29 9 -40 2 -11 5
-29 5 -40 1 -17 5 -16 29 11 15 18 34 42 42 54 8 12 20 28 25 34 43 50 74 118
80 175 7 61 17 106 26 109 5 2 7 8 3 13 -3 5 0 34 6 63 6 30 12 64 13 75 1 12
4 21 7 21 3 0 5 14 4 30 -1 17 1 30 5 30 3 0 7 12 7 27 1 16 4 38 7 49 3 12 8
39 11 60 8 52 18 105 23 129 7 30 14 68 17 90 1 11 6 34 9 50 4 17 9 44 12 60
5 37 14 85 20 105 2 8 7 35 10 60 7 50 13 85 15 85 1 0 3 14 6 32 2 18 8 51
13 75 5 23 8 46 5 50 -3 4 -1 8 4 8 5 0 9 10 9 23 0 12 3 40 8 62 5 22 10 49
11 60 1 11 3 20 4 20 1 0 4 14 6 30 3 17 14 42 24 57 11 15 20 32 20 38 0 5 5
10 12 10 6 0 8 3 5 6 -4 4 1 19 11 33 9 14 22 35 29 46 74 124 103 175 103
180 0 3 18 33 40 66 23 32 38 59 34 59 -4 0 0 8 8 18 9 9 23 33 33 52 10 19
24 39 31 43 8 4 14 14 14 22 0 8 18 42 40 76 38 59 50 86 32 75 -4 -2 -14 -1
-22 4 -8 5 -21 5 -31 -1 -12 -6 -19 -5 -22 4 -4 8 -6 8 -6 -2z"/>
<path d="M1520 1870 c-14 -11 -31 -20 -37 -20 -7 0 -13 -4 -13 -10 0 -5 -7
-10 -15 -10 -9 0 -18 -7 -21 -15 -4 -8 -10 -12 -15 -9 -5 3 -9 0 -9 -6 0 -6
-4 -9 -9 -6 -5 3 -12 -1 -15 -10 -3 -8 -10 -12 -16 -9 -5 3 -10 1 -10 -5 0 -6
-5 -8 -10 -5 -6 3 -13 -1 -16 -9 -3 -9 -12 -16 -18 -16 -7 0 -22 -9 -34 -20
-12 -12 -22 -18 -22 -15 0 3 -22 -11 -50 -30 -27 -19 -50 -32 -50 -28 0 5 -5
0 -11 -9 -5 -10 -17 -18 -24 -18 -8 0 -15 -5 -15 -11 0 -5 -5 -7 -10 -4 -6 3
-13 -1 -16 -9 -3 -9 -10 -14 -14 -11 -4 2 -19 -6 -34 -20 -15 -13 -28 -23 -30
-22 -3 2 -33 -16 -148 -89 -21 -14 -41 -24 -44 -23 -4 0 -10 -4 -13 -9 -3 -5
-50 -36 -103 -69 -54 -33 -95 -63 -93 -67 3 -3 2 -4 -1 -1 -10 6 -64 -24 -64
-36 0 -6 -4 -8 -9 -4 -6 3 -14 -3 -20 -12 -6 -10 -11 -15 -11 -10 0 8 -83 -44
-88 -55 -2 -5 -9 -8 -17 -8 -7 0 -18 -7 -25 -15 -7 -8 -16 -12 -21 -9 -5 3 -9
0 -9 -5 0 -6 -6 -11 -14 -11 -8 0 -17 -7 -20 -16 -3 -8 -10 -13 -14 -10 -5 3
-20 -6 -35 -20 -15 -14 -27 -22 -27 -18 0 4 -9 -1 -20 -11 -11 -10 -20 -14
-20 -10 0 11 -29 -27 -30 -38 0 -5 22 -7 48 -6 26 1 53 -1 60 -5 7 -4 12 -4
12 1 0 4 23 8 50 8 28 0 50 -4 50 -10 0 -7 3 -7 8 0 4 6 30 10 57 10 28 0 53
-4 57 -10 5 -7 8 -7 8 0 0 11 91 12 109 1 6 -4 11 -3 11 3 0 10 19 9 38 -2 6
-5 12 -5 12 0 0 10 83 9 99 -1 6 -4 11 -3 11 2 0 5 10 8 23 7 21 -2 67 36 67
56 0 5 4 9 9 9 6 0 18 13 27 29 10 17 21 28 26 25 4 -3 8 1 8 9 0 8 11 26 24
40 14 15 37 43 53 64 15 21 35 45 43 53 8 9 27 32 42 51 15 19 37 47 50 61 36
41 58 71 58 81 0 4 4 6 9 2 5 -3 12 3 15 12 4 10 19 32 34 49 15 17 41 49 57
70 46 58 68 84 93 111 12 13 22 28 22 33 0 6 5 10 10 10 6 0 10 5 10 10 0 6
16 26 35 45 19 19 32 35 28 35 -3 0 0 7 7 15 19 23 8 26 -20 5z"/>
</g>
</svg>
