<?xml version="1.0" encoding="utf-8"?>
<!-- Generator: Adobe Illustrator 22.1.0, SVG Export Plug-In . SVG Version: 6.00 Build 0)  -->
<svg version="1.1" id="Layer_1" xmlns="http://www.w3.org/2000/svg" xmlns:xlink="http://www.w3.org/1999/xlink" x="0px" y="0px"
	 viewBox="0 0 40 40" style="enable-background:new 0 0 40 40;" xml:space="preserve">
<style type="text/css">
	.st0{fill:#FFFFFF;}
</style>
<path class="st0" d="M28,40V24.9h5l0.8-5.9H28v-3.7c0-1.7,0.5-2.9,2.9-2.9H34V7.2c-0.5,0-2.4-0.2-4.5-0.2C25.1,7,22,9.7,22,14.8v4.3
	h-5V25h5v15H10C4.5,40,0,35.5,0,30V10C0,4.5,4.5,0,10,0h20c5.5,0,10,4.5,10,10v20c0,5.5-4.5,10-10,10H28z"/>
</svg>
