<?xml version="1.0" encoding="utf-8"?>
<!-- Generator: Adobe Illustrator 22.1.0, SVG Export Plug-In . SVG Version: 6.00 Build 0)  -->
<svg version="1.1" id="Layer_1" xmlns="http://www.w3.org/2000/svg" xmlns:xlink="http://www.w3.org/1999/xlink" x="0px" y="0px"
	 viewBox="0 0 40 40" style="enable-background:new 0 0 40 40;" xml:space="preserve">
<style type="text/css">
	.st0{fill:#FFFFFF;}
</style>
<path class="st0" d="M0,10C0,4.5,4.5,0,10,0h20c5.5,0,10,4.5,10,10v20c0,5.5-4.5,10-10,10H10C4.5,40,0,35.5,0,30V10z M12.4,33.1
	V15.2h-6v17.9H12.4z M9.4,12.7c2.1,0,3.4-1.4,3.4-3.1c0-1.8-1.3-3.1-3.3-3.1S6.1,7.9,6.1,9.6C6.1,11.4,7.4,12.7,9.4,12.7L9.4,12.7z
	 M15.7,33.1h5.9v-10c0-0.5,0-1.1,0.2-1.5c0.4-1.1,1.4-2.2,3-2.2c2.2,0,3,1.6,3,4V33h5.9V22.8c0-5.5-2.9-8-6.8-8
	c-3.2,0-4.6,1.8-5.4,3l0,0v-2.6h-5.9C15.8,16.9,15.7,33.1,15.7,33.1L15.7,33.1z"/>
</svg>
