<?xml version="1.0" encoding="utf-8"?>
<!-- Generator: Adobe Illustrator 22.1.0, SVG Export Plug-In . SVG Version: 6.00 Build 0)  -->
<svg version="1.1" id="Layer_1" xmlns="http://www.w3.org/2000/svg" xmlns:xlink="http://www.w3.org/1999/xlink" x="0px" y="0px"
	 viewBox="0 0 24 24" style="enable-background:new 0 0 24 24;" xml:space="preserve">
<path d="M11,23c-1.1,0-2-0.9-2-2v-2h6v2c0,1.1-0.9,2-2,2H11z M12,1c0.7,0,1.4,0.1,2.1,0.3C15.2,2.8,16,5.7,16,9c0,2.3-0.4,4.4-1,7
	c0,1.1-0.9,2-2,2h-2c-1.1,0-2-0.9-2-2c-0.6-2.6-1-4.7-1-7c0-3.3,0.8-6.2,1.9-7.7C10.6,1.1,11.3,1,12,1z M20,8c0,3.2-1.9,7.9-4.5,9.2
	C16.4,15.4,17,11.8,17,9s-0.6-5.4-1.5-7.2C18.1,3.1,20,4.8,20,8z M4,8c0-3.2,1.8-4.9,4.5-6.2C7.6,3.6,7,6.2,7,9s0.6,6.4,1.5,8.2
	C5.8,15.9,4,11.2,4,8z"/>
</svg>
