<?xml version="1.0" encoding="utf-8"?>
<!-- Generator: Adobe Illustrator 22.1.0, SVG Export Plug-In . SVG Version: 6.00 Build 0)  -->
<svg version="1.1" id="Layer_1" xmlns="http://www.w3.org/2000/svg" xmlns:xlink="http://www.w3.org/1999/xlink" x="0px" y="0px"
	 viewBox="0 0 24 24" style="enable-background:new 0 0 24 24;" xml:space="preserve">
<g>
	<path d="M15.8,14.3l5.1,5.1l-1.5,1.5l-5.1-5.1V15L14,14.7c-1.2,1.1-2.6,1.6-4.3,1.6c-1.8,0-3.4-0.6-4.7-1.9s-1.9-2.8-1.9-4.7
		S3.7,6.3,5,5s2.9-1.9,4.7-1.9s3.4,0.6,4.7,1.9s1.9,2.9,1.9,4.7c0,1.7-0.5,3.1-1.6,4.3l0.3,0.3H15.8z M6.5,13c0.9,0.9,2,1.3,3.2,1.3
		s2.4-0.4,3.2-1.3s1.3-2,1.3-3.2S13.9,7.4,13,6.5s-2-1.3-3.2-1.3S7.4,5.6,6.5,6.5s-1.3,2-1.3,3.2S5.6,12.1,6.5,13z"/>
</g>
</svg>
