<svg xmlns="http://www.w3.org/2000/svg" width="80" height="80" viewBox="0 0 80 80">
    <path fill="#175BA4" fill-rule="evenodd" d="M44.872 78.414c-10.38.748-16.063-1.497-21.005-3.993-2.965-1.497-3.488-1.497-6.948-2.246C7.035 71.177 6.672 69.415 0 64.923c0 0 3.081.016 5.305-.733 6.92-2.994 10.072 2.18 13.284 2.929 6.672 1.746 20.846-7.17 24.553-6.672 0 0-1.188-10.781 4.248-13.526 12.85-4.99 27.426-23.067 2.201-45.481 13.596 1.375 21.08 13.692 21.08 23.39 0 11.038-3.995 20.763-15.819 27.226-.494.25.21.862.705.612 2.97-1.938 8.63-4.113 13.676-13.68 4.815-9.13 1.585-23.051 1.832-22.053C92.637 41.92 57.552 60.889 52.14 62.475c-.348.103-.491.863-.244.863 6.584-1.546 12.674-6.493 16.904-9.955 6.478-5.301 8.58-11.338 10.443-18.006 0 0 2.934 11.11-2.75 19.594-10.131 13.724-21.871 15.262-27.555 16.76-.741.249-.56.572.181.821 5.93-1.247 12.582-2.863 21.754-9.649-6.618 11.718-18.341 14.762-26.001 15.51zM6.207 54.643c4.431 7.174 8.404 10.006 12.975 11.332 4.57 1.327 12.39-3.016 19.453-6.006.484-.205 1.009-.634 2.979-.634 0 0 .517-8.804-4.978-11.374C23.647 43.08 4.858 21.484 32.334 1.44 13.6 3.496 7.263 21.75 11.759 35.112c3.368 9.171 12.638 16.19 19.132 18.246.5.257.367.852-1.661.2-2.895-.929-13.208-5.368-18.571-18.446-3.247-9.25-.25-16.446-.25-16.446-.25-.257-6.244 4.368-5.745 14.647.5 14.905 12.08 21.536 13.738 23.642.25 0-.192.257-.691 0C14.638 55.546 4.664 46.79 3.623 36.182c-1.396 4.611-1.815 11.338 2.584 18.46z"/>
</svg>
