<svg xmlns="http://www.w3.org/2000/svg" width="80" height="80" viewBox="0 0 80 80">
    <g fill="none" fill-rule="evenodd">
        <path fill="#D3010A" d="M73.586 74.607c-9.338 6.854-24.528 7.415-37.918-.337-8.551-5.057-15.64-11.91-19.916-25.057-2.025-6.067-.9-19.775-9.338-19.438 3.938-6.292 9.338-4.606 11.589-3.932 3.375 1.236 4.95 3.033 6.75 5.955 2.139 4.382 6.752 1.123 3.264-3.034-2.588-3.933-5.964-5.843-9.677-7.303 2.026-2.472 5.176-3.596 7.201-3.483-1.012-3.259-.675-5.506-.112-7.529 2.7-.337 4.838-.112 6.751.45C32.743 3.82 37.693.674 41.181 0c-.225 1.124.9 4.045 2.476 5.28 6.976-5.842 16.652-1.684 19.24 1.35-.562 1.01-1.912 2.022-1.575 3.482 7.201 4.382 8.326 10.675 7.426 16.63-6.863-3.82-14.177-6.967-23.966-.787-8.664 6.742-11.252 19.55-4.276 31.573 4.726 8.09 10.352 11.236 16.878 13.708 6.413 2.472 12.04 3.595 16.202 3.37z"/>
        <path fill="#FFF" d="M68.073 75.843c-9.001 4.382-25.541 3.932-38.93-7.978C22.165 62.247 16.09 50 15.64 41.798c-.9-10.562-4.726-12.247-6.301-13.146 1.913-1.91 4.726-2.36 7.089-1.798 4.388.899 6.188 4.27 7.538 6.517 3.6 4.719 8.89.337 6.076-3.82-1.8-3.82-5.513-6.854-8.664-8.427 2.138-1.798 4.501-1.91 6.301-1.798-1.237-2.36-1.575-5.843-1.125-7.416 2.588-.337 5.514.337 7.201 1.348-.112-6.629 3.15-10 6.076-11.123.225 1.011 2.363 4.157 3.938 5.168 6.751-6.292 14.965-2.36 17.216-.45-.9.563-1.463 2.698-1.463 4.046 5.4 2.472 8.439 7.19 7.989 13.37-5.739-3.145-12.94-4.943-20.141-1.685-9.002 4.27-14.515 15.506-11.702 26.517 1.575 8.877 7.876 15.393 13.052 19.101 5.288 3.708 15.077 7.528 19.353 7.64z"/>
        <path fill="#D3010A" d="M33.755 40.674c-4.05 6.517-7.313 6.854-10.576 4.72-5.064-3.821-1.013-10.675 4.05-8.315 3.15.45 5.626-2.585 4.951-6.292-1.8-4.944-4.726-7.416-7.651-9.439 2.25-.674 4.5-.45 6.75.562-3.037-3.258-3.487-5.955-3.262-8.652 4.05 0 6.413 2.135 8.439 3.82-2.7-5.954-.563-10.674 2.7-12.696 1.125 1.798 3.376 3.933 5.176 5.056 4.05-5.955 11.702-4.157 14.402-2.247-.45 1.348-.787 2.809-.562 4.607 5.513 2.022 7.763 6.854 7.988 10.224-5.626-3.258-15.977-4.044-22.053.562-6.076 4.045-9.34 9.888-10.352 18.09z"/>
        <path fill="#D3010A" d="M46.245 68.202c-7.764-6.292-12.94-15.73-12.715-24.831-3.713 6.18-9.001 5.505-11.702 2.809-2.7-2.584-4.5-7.865 1.013-11.011-1.463-3.147-3.263-8.203-11.14-6.517 5.177 4.719 5.064 10.561 5.964 16.966 4.276 19.326 23.967 34.944 44.67 30.337-5.401-1.573-11.252-3.82-16.09-7.753z"/>
    </g>
</svg>
