<svg xmlns="http://www.w3.org/2000/svg" width="80" height="80" viewBox="0 0 80 80">
    <g fill="none" fill-rule="evenodd">
        <path fill="#6F488E" d="M0 8.08h19.048l32.619 34.302H7.857l-.952-5.002H33.095L13.333 16.894l4.048 10.957H4.524L0 8.08zm17.857 21.2l.476 1.43H5.238L5 29.28h12.857zm.953 2.62l.476 1.43H5.952l-.476-1.43H18.81zm.952 2.621l.476 1.43H6.428l-.238-1.43h13.572zm44.762 21.2L80 71.92H59.524L51.19 61.915H29.762l3.571 10.005H14.762L11.19 55.722h53.334z"/>
        <path fill="#E99744" d="M10.952 55.08L8.095 43.175h44.286L63.81 55.08H10.952zM30 48.175c-4.286-4.285-10 .715-15.952-2.857 2.619 5.476 11.19 1.429 15.952 2.857zm1.429 3.81c-4.286-4.286-9.762.476-15.953-2.857 2.857 5.476 11.19 1.428 15.953 2.857z"/>
        <path fill="#FFF" d="M36.13 46.75h.985L38.233 51h-1.079l-.15-.844h-.81l-.158.844H35.02l1.11-4.25zm.473 1.16l-.272 1.484h.537l-.265-1.484zm1.377-1.16h2.684v.862h-.862V51h-.99v-3.388h-.832v-.862zm3.108 0h1.526c.345 0 .625.089.84.268.214.178.321.432.321.761 0 .27-.077.5-.23.69-.153.19-.383.34-.69.45.384.06.621.305.713.731l.29 1.35h-1.085l-.159-1.176c-.028-.2-.076-.344-.142-.436-.066-.091-.167-.137-.303-.137h-.091V51h-.99v-4.25zm.99.825v.911h.216c.155 0 .272-.045.354-.137a.503.503 0 0 0 .122-.347c0-.142-.036-.249-.107-.32-.071-.071-.179-.107-.323-.107h-.262zm2.989-.825h.984L47.169 51h-1.078l-.15-.844h-.81l-.159.844h-1.014l1.109-4.25zm.472 1.16l-.271 1.484h.536l-.265-1.484zm1.923-1.16h.99v1.53l.75-1.53h.98l-.828 1.444L50.31 51H49.2l-.48-1.685-.269.463V51h-.99v-4.25z"/>
    </g>
</svg>
