<svg xmlns="http://www.w3.org/2000/svg" width="80" height="80" viewBox="0 0 80 80">
    <path fill="#1F2C51" fill-rule="evenodd" d="M76.356 14.616c.073-.053-.146.084-.082.05l.062-.036c-.181.106-.612.46-.834.39-.363-.116.027-.462.191-.61.159-.142.681-.588.91-.483.359.165-.035.537-.247.689.086-.063.592-.426 0 0zm1.626 1.873h.001v-.001c.264-.125.656-.379.292-.587-.272-.156-.812.196-1.026.358-.813.615.197.432.633.272a.496.496 0 0 0 .059-.023l.04-.02c-.04.022-.212.091-.04.02a1.496 1.496 0 0 1-.059.023zm.456 2.667c-.543.14-.57-.692-.025-.83.685-.172-.565.143 0 0 .666-.167.51.66.079.814.021-.006.035-.007.025.001a.376.376 0 0 1-.054.028.39.39 0 0 1-.061.01H78.4c-.018 0 .006-.012.037-.023zm-7.508-1.588h.001a14.684 14.684 0 0 0 1.97-1.39c.46-.376.947-1.027 1.555-.846 1.143.34 2.395 2.258 2.877 3.249.64 1.312.952 2.891.58 4.325-.24.918-1.073 2.507-2.24 2.425-.633-.045-.57-.342-.261-.73.443-.557 1.026-.925 1.296-1.636.55-1.45-.52-2.982-1.855-3.549-.69-.293-1.492-.291-2.216-.139-.63.133-.921.423-1.316-.184-.132-.203-.083-.496-.274-.687-.139-.139-.442-.132-.532-.231-.365-.4-.028-.43.39-.594-.14.054.188-.108.026-.014zm3.36-7.6c.268-.148.638-.353-.18.098-.886.506-4.128 2.224-3.148 3.573 1.086 1.496 3.685-.988 4.592-1.68.457-.348 3.982-2.507 3.687-2.998-.215-.36-2.025.034-2.31.09a9.754 9.754 0 0 0-2.821 1.015c.818-.452.448-.246.18-.098zm-.724 10.209c1.205.115 2.552.919 2.39 2.315-.14 1.217-1.385 2.013-2.547 1.827-1.157-.185-2.353-1.341-2.228-2.584.115-1.14 1.179-1.51 2.174-1.554-.178 0-.326-.004.207-.004a4.723 4.723 0 0 0 .004 0zm-.001.002zm-.206.002a4.573 4.573 0 0 1-.001 0h.001zm-4.492-3.731c.747.168.925.685-.029.496-.559-.11-.847-.59-.057-.513a1.405 1.405 0 0 0 .005 0h-.005.005a1.788 1.788 0 0 1 .081.017zM42.303 45.459l.071.11c.111.189-.457-.607-.29-.425-.374-.42-1.141-1.043-1.3-1.534-.103-.32-.238-.476.223-.39.42.08 1 .799 1.313 1.09.46.428.893.887 1.29 1.374 3.726 4.578 3.758 10.322 1.216 15.485-1.207 2.452-2.884 4.684-4.803 6.622a27.808 27.808 0 0 1-3.242 2.816c-.852.628-1.59 1.327-.01 1.202 10.879-.86 23.156-5.051 29.667-14.35 3.261-4.658 4.216-10.616 2.104-15.94-.156-.395-.571-1.611-1.06-1.733-.412-.102-.727.432-.99.674-.945.872-2.032 1.596-3.17 2.193-2.39 1.256-5.097 1.99-7.802 2.02a14.729 14.729 0 0 1-4.488-.635c-.525-.161-1.05-.267-1.3-.8-.236-.504-.218-1.294-.267-1.829a80.105 80.105 0 0 1-.291-8.464c.09-5.513 1.265-11.556 5.389-15.533 1.865-1.799 4.116-3.141 6.549-4.017 1.415-.51 2.897-.85 4.4-.952.805-.055 2.577-.27 1.373.813-.844.76-1.928 1.455-2.041 2.691-.097 1.06.32 1.74 1.01 2.437.679.685 1.46 1.533 2.575 1.11.6-.227 1.213-1.284 1.852-.344.304.45.034 1.292-.009 1.77-.053.59-.064 1.193.09 1.77.286 1.066 1.029 1.847 2.066 2.205.525.181 1.108.119 1.61.318.448.178.771.638 1.243.814.702.261 1.897-.388 2.05.597.186 1.2-1.957 1.199-2.75 1.211-1.012.016-2.201.014-.953 1.06.485.407.89.702 1.006 1.349.08.445.091 1.072.11 1.522.016.435.102.759-.455.85-.516.083-.569-.17-.585-.644-.024-.684.302-1.355 0-2.026-.216-.484-.685-.722-1.122-.969-1.04-.586-2.308-1.093-3.513-1.178-.35-.024-1.023-.068-.986.435.03.414.855.82 1.132 1.036.743.578 1.672 1.172 2.262 1.893.277.338.932 1.328.805 1.802-.134.502-.499.296-.95.173-1.02-.277-2.409-.445-3.28-1.068-.804-.575-1.037-2.211-1.334-3.127-.41-1.265-.816-2.53-1.246-3.788-.404-1.18-.842-2.347-1.274-3.517-.35-.947-.476-1.644-1.432-.714-1.864 1.81-1.835 5.078-1.404 7.441.494 2.705 2.026 4.557 4.004 6.363 2.019 1.843 3.754 4.095 4.832 6.619 4.943 11.575-4.805 22.098-14.474 26.962-5.202 2.616-10.896 3.953-16.63 4.766a63.378 63.378 0 0 1-8.669.604c-1.511.006-3.022-.015-4.533-.056-.585-.016-2.358.225-2.691-.244 1.53-.765 3.335-1.068 4.947-1.65 1.552-.558 3.093-1.168 4.566-1.911 2.905-1.468 5.594-3.469 7.704-5.956 2.193-2.585 3.845-5.768 4.238-9.167.38-3.287-.532-6.382-2.282-9.125a2.603 2.603 0 0 0-.071-.111zM69.47 10.456v.008a.889.889 0 0 1-.001.007c-.159.62-.58.768-.474-.01.076-.558.46-.623.475-.006zm-13.884 3.703c.124.182.637.84.26 1.015-.232.108-.514-.385-.603-.516-.12-.178-.378-.498-.373-.725.013-.607.529-.08.682.175.06.092-.094-.156 0 0 .06.092.054.083.034.051zm7.661-3.3c.034.27-.11 1.81-.513.828-.112-.273-.251-1.09-.105-1.363.326-.606.58.249.617.527-.005-.033-.033-.247 0 0a3.607 3.607 0 0 1 .001.008zm4.618-1.12c.408-.2-.227.112 0 0 .408-.2.362.65.35.836-.037.254-.24 1.597-.577.864-.156-.34-.148-1.516.227-1.7zm-1.073-.063c.241.118-.298-.145 0 0 .241.118.178.624.178.837-.018.263-.057 1.272-.469 1.01-.36-.23-.165-2.07.291-1.847zm-1.405.094c.382-.142-.26.097 0 0 .568-.212.403 1.474.26 1.72-.253.435-.419-.028-.458-.361-.033-.288-.156-1.227.198-1.359zm.401.805c0 .293.004-.204 0 0zm-1.576-.645c.288.043-.342-.05 0 0 .288.043.313.529.346.745.018.267.076 1.62-.463.956-.18-.223-.385-1.775.117-1.7zm-2.525.47c-.469.002-.245 1.875.213 1.865.526-.01.253-1.866-.213-1.865-.333.001.304 0 0 0zm-1.033.359c.284.032-.362-.041 0 0 .284.032.32.516.37.725.04.271.143 1.603-.42.987-.193-.21-.467-1.77.05-1.712zm-1.243.418c-.461.09-.005 1.869.444 1.811.522-.066.011-1.9-.444-1.811-.326.063.306-.06 0 0zm-1.16.504c-.461.054.081 1.755.482 1.757.552.003-.041-1.808-.482-1.757-.339.04.27-.031 0 0zm-1.102.517c.257-.062-.304.075 0 0 .257-.062.403.399.48.566.082.227.337.661.235.916-.128.317-.31.176-.463-.032-.142-.193-.666-1.348-.252-1.45zm-1.225.788c.245-.15.485.276.598.437.135.211.444.539.407.814-.046.329-.217.28-.425.117-.215-.169-.93-1.153-.58-1.368zm-1.885 1.475c.223-.087-.32.124 0 0 .223-.087.467.273.58.418.147.205.824 1.395.068.963-.207-.118-1.071-1.217-.648-1.381zm-.913.772c.215-.184-.228.196 0 0 .215-.184.522.193.66.33.157.175.587.533.535.817-.053.284-.23.207-.419.106-.237-.127-1.071-1-.776-1.253zm-.796.8c.209-.127-.287.173 0 0 .209-.127.48.197.61.325.16.18.564.486.51.77-.058.3-.228.204-.427.073-.2-.131-1.061-.946-.693-1.169zm-.31 1.22c.182.155-.148-.116 0 0 .178.151.791.555.617.86-.172.3-.566-.068-.732-.201-.18-.143-.625-.437-.633-.68-.02-.543.55-.134.748.022zm-.784.909c.21.123-.17-.084 0 0 .209.123.756.342.745.647-.014.386-.44.18-.645.077-.209-.104-.647-.31-.763-.522-.318-.583.384-.34.663-.202zm-.646 1.032c.202.125-.175-.105 0 0 .199.123.868.414.73.747-.122.292-.526.026-.698-.066-.192-.103-.65-.3-.733-.514-.215-.564.448-.32.7-.167zm-.61.92c.231.116-.181-.083 0 0 .225.113.993.377.859.744-.119.325-.616.053-.816-.041-.232-.109-.726-.284-.817-.538-.196-.545.545-.27.774-.164zm-.427 1.231c.25.128.006.004 0 0 .177.091.874.418.638.716-.176.223-.548-.04-.73-.14-.186-.104-.684-.309-.72-.534-.079-.492.53-.205.741-.078.061.033.077.04.07.036zm-.07-.036l.07.036c-.017-.01-.183-.104-.07-.036zm-.485 1.144c.186.08-.181-.066 0 0 .22.095.7.216.802.46.18.43-.327.338-.579.259-.21-.067-.834-.266-.924-.482-.212-.508.453-.327.7-.237zm-.473 1.306c.21.05-.198-.034 0 0 .244.058.815.102.931.37.177.41-.42.331-.642.292-.239-.043-.9-.132-1.017-.37-.232-.468.503-.331.728-.292zm-.398 1.193c.196.036-.188-.032 0 0 .254.047.797.075.955.313.256.385-.296.381-.546.357-.256-.026-.859-.086-1.058-.284-.438-.437.36-.435.649-.386zm-.236 1.095c.202.039-.19-.03 0 0 .25.048.815.079.96.333.22.384-.361.358-.595.331-.252-.028-.86-.083-1.038-.285-.415-.469.418-.42.673-.38zm-.435 1.8c-.193-.027.208.027 0 0-.173-.024-.619-.085-.614-.337.007-.363.564-.248.775-.232.235.026 1.118.057 1.045.45-.07.38-.964.151-1.206.118zm-.243 1.226c-.41-.062-.854-.46-.223-.593.218-.046.515.016.747.053.227.035.927.176.595.53-.207.222-.86.049-1.12.01zm.197-.576c-.002 0 .016.001 0 0-.133-.01.214.018 0 0zm-.277 1.76c-.224-.024-.684-.065-.552-.404.093-.24.527-.162.725-.162.243.018 1.06-.003 1.074.36.019.444-1.003.23-1.247.205zm-.051 1.344c-.211-.022-.586-.064-.576-.341.01-.317.553-.232.75-.226.235.017 1.103.008 1.062.395-.04.395-.996.197-1.236.172zm.012 1.21c-.83-.07-.628-.637.125-.57.058.001.079.002.08.001.235.005 1.139.016.902.465-.138.263-.877.122-1.107.103zm.125-.57l.08.001c0-.002-.235-.015-.08-.002zm-.145 1.701c-.2-.017.21.018 0 0-.198-.017-.607-.049-.55-.347.054-.272.47-.217.67-.223.242.01.956-.034.954.334-.001.402-.831.257-1.074.236zm.013 1.183c-.198-.009.197.01 0 0-.29-.013-.865-.188-.45-.52.187-.15.749-.076.973-.039.248.04.721.19.41.49-.186.18-.701.08-.933.07zm0 1.132c-.19-.013.207.013 0 0-.311-.02-.848-.273-.346-.535.2-.105.611-.043.831-.015.23.029.73.102.548.438-.14.259-.793.127-1.032.112zm.05 1.282c-.2-.006.2.005 0 0-.745-.02-.704-.589.02-.574.232.015.951-.067 1.012.264.082.445-.787.317-1.033.31zm1.14.996c-.045.299.058-.395 0 0-.052.345-.995.235-1.23.204-.205-.028-.577-.07-.502-.363.065-.257.524-.213.711-.216.213.009 1.08-.02 1.02.375zm.133 1.143c.074-.453-1.583-.533-1.713-.17-.18.5 1.647.575 1.713.17.064-.394-.05.3 0 0zm.05 1.07c-.035.266.046-.37 0 0-.04.305-.941.211-1.155.185-.68-.083-.448-.522.138-.522.193.008 1.063-.033 1.016.336zm.073.98c-.031-.338-1.448-.366-1.385-.001.051.293 1.41.258 1.385 0-.025-.277.023.246 0 0zm-.108.723c-.27-.027-.27.434.062.398.342-.038.245-.398-.062-.398zm0 0c.142 0-.137-.014 0 0zm-1.306-.299c-3.833-2.164-5.464-6.695-6.163-10.82-.383-2.263-.332-4.46-.359-6.74-.011-.948-.142-1.444-.955-1.982a77.834 77.834 0 0 0-2.867-1.791c-7.707-4.64-16.395-7.797-25.338-8.882a51.617 51.617 0 0 0-6.746-.396c-.92.01-1.933.202-2.845.11C.832 11.546.612 9.915.387 9.073.196 8.357-.369 6.934.37 6.471c.362-.227 1.261-.123 1.687-.137.608-.02 1.216-.018 1.823.001 2.3.073 4.594.367 6.859.759 9.065 1.57 18.046 4.663 25.926 9.446 2.043 1.24 4.422 2.654 6.023 4.45.955 1.072.4 1.897.157 3.163-.23 1.203-.308 2.44-.322 3.662-.058 4.929.973 10.726 4.597 14.337-.486-.274-.744-.74 0 0zm21.158 4.094c.145 1.597-.018 3.205-.406 4.758-.75 3.005-2.37 5.748-4.355 8.102-4.118 4.885-10.185 7.983-16.221 9.798-1.52.458-3.059.843-4.617 1.147-.744.145-1.49.274-2.238.4-.352.06-.713.133-1.071.143-.238.008-.472-.087-.218-.315-.014.014.583-.491.008-.007 4.778-4.022 8.594-9.687 8.789-16.1.097-3.212-1.144-6.03-3.226-8.435-2.064-2.384-4.613-4.248-7.28-5.902a42.291 42.291 0 0 0-8.438-4.042c-3.019-1.046-6.109-1.701-9.266-2.184-1.561-.239-3.096-.27-4.671-.207a4.422 4.422 0 0 1-1.034-.077c-.289-.058-.498-.231-.74-.395-.65-.437-1.248-.948-1.833-1.466a52.35 52.35 0 0 1-.852-.772c-.266-.246-.642-.505-.836-.814-.375-.599.83-.747 1.206-.81a21.87 21.87 0 0 1 4.672-.285c3.22.164 6.395.883 9.407 2.022a34.212 34.212 0 0 1 4.297 1.95c.68.37 1.358.744 2.023 1.141.21.126.443.378.696.408.277.032.534-.178.615-.434.207-.658-.661-1.004-1.097-1.262a37.136 37.136 0 0 0-2.153-1.186 39.694 39.694 0 0 0-4.418-1.92c-3.012-1.091-6.215-1.79-9.42-1.918a22.245 22.245 0 0 0-4.851.33c-.592.108-1.497.476-1.979.028-.546-.508-1.038-1.07-1.534-1.627-.458-.515-.9-1.067-1.42-1.52-.597-.518-.028-.845.517-1.041 1.503-.542 3.237-.705 4.825-.646 3.156.117 6.366.66 9.401 1.521 3.063.87 6.145 1.934 9.017 3.315.347.167.695.333 1.036.513.274.144.585.354.908.337.668-.034.458-.778.122-1.086-.47-.43-1.273-.636-1.842-.905a48.758 48.758 0 0 0-2.257-1.015c-2.958-1.215-5.958-2.23-9.089-2.9a46.2 46.2 0 0 0-4.826-.77c-1.586-.168-3.246-.328-4.838-.177-.745.07-1.508.204-2.229.407-.316.09-.659.3-.984.333-.353.037-.59-.219-.794-.468-.48-.585-.873-1.26-1.25-1.914a27.47 27.47 0 0 1-.57-1.05c-.097-.185-.44-.673-.349-.892.081-.194.727-.267.902-.314.37-.1.729-.196 1.113-.225.79-.06 1.579-.138 2.369-.192 1.59-.109 3.16-.007 4.743.16 3.257.342 6.452.97 9.582 1.943 2.971.923 5.8 2.108 8.576 3.506.221.112.55.278.799.153.273-.137.283-.491.13-.717-.335-.498-1.236-.76-1.751-1.015-1.413-.7-2.929-1.261-4.41-1.797-6.032-2.182-12.52-3.573-18.964-3.181-.786.048-1.56.137-2.337.254-.349.052-.52.055-.753-.23-.212-.257-.387-.557-.555-.845-.407-.702-.767-1.435-1.142-2.154-.1-.191-.29-.45-.174-.669.112-.215.45-.253.659-.283 1.481-.214 3.012-.219 4.506-.213 1.69.006 3.353.08 5.031.275 6.4.746 12.777 2.576 18.632 5.268a60.45 60.45 0 0 1 8.332 4.666c.325.218.644.445.965.669.22.153.488.283.667.487.198.226.183.474.172.763-.015.409-.038.816-.05 1.225-.046 1.599-.05 3.155.158 4.745.395 3.03 1.393 6.061 3.014 8.66 1.626 2.606 4.268 4.485 7.14 5.47 3.014 1.036 6.183 1.203 9.297.558 1.478-.306 2.971-.853 4.317-1.536.7-.355 1.373-.78 2.02-1.222.292-.2.582-.405.85-.635.226-.192.454-.503.68-.191.414.567.567 1.478.738 2.144.2.774.335 1.566.407 2.362zm-.498-28.693c.28.056.498.244.614.507.092.21.06.447-.164.54a.83.83 0 0 1-.73-.078c-.206-.135-.324-.355-.249-.599.084-.268.271-.342.529-.37zm-1.43 16.317c-.404.1-.788-.254-1.053-.52a6.416 6.416 0 0 1-.73-.896c-.48-.705-.939-1.434-1.314-2.2-.363-.745-.58-1.556-.75-2.364-.17-.805-.171-1.633-.171-2.451 0-.401.065-.805.127-1.2a5.38 5.38 0 0 1 .308-1.186c.071-.178.15-.361.293-.494.06-.055.144-.117.23-.081.091.038.135.183.172.27.121.28.214.575.31.865l1.02 3.07c.225.676.446 1.352.681 2.023.28.797.55 1.596.817 2.397.144.432.294.863.44 1.296.116.345.229.75.05 1.099a.82.82 0 0 1-.43.372zm8.88-5.249c.358-.026.71-.071 1.067-.116.173-.021.345-.052.513-.105.141-.044.336-.194.48-.167.166.03.193.171.157.31-.044.17-.086.343-.14.51a8.108 8.108 0 0 1-.345.877c-.128.28-.27.55-.454.797-.184.246-.407.527-.674.688-.369.223-.365-.278-.376-.516-.015-.309.016-.628.029-.937.012-.279.063-.63-.168-.832-.107-.094-.278-.206-.35-.328-.101-.17.154-.18.261-.18zm-1.493-4.928c.807.007 1.517-.642 1.445-1.473-.07-.8-.808-1.288-1.541-1.432a16.777 16.777 0 0 1-.131-.022c-.794-.1-1.956.21-1.823 1.2.118.87 1.214 1.72 2.05 1.727zm.095-2.05c.685.325.789 1.19-.159 1.102-1.108-.102-1.125-1.425.001-1.158a.932.932 0 0 0 .158.055zm4.595-4.115c.13-.035-.225.075 0 0zm.757-9.159c1.812.358.148 1.689-.57 2.269-1.454 1.18-2.998 2.25-4.515 3.347-1.084.784-2.646 2.699-4.036 2.012-.535-.264-1.267-.82-1.914-.621-.608.186-.561.848-.92 1.212-.304.308-.739.67-1.107.36-.422-.357-.132-1.471.136-1.841.493-.681 1.381-1.26 1.993-1.837a28.466 28.466 0 0 0 1.6-1.653c1.297-1.436 2.28-2.42 4.206-2.858 1.601-.363 3.49-.713 5.127-.39zm-.57 2.269c.254-.206-.915.742 0 0zM77.206 15.4c-.225.144.129-.082 0 0zm-.857-.781l-.014.01.014-.01zm2.01 2.376c-1.012.235-1.115.927.066.532.691-.187.72-.715-.066-.532zm-1.553-2.005c-.905.66-.517.995.4.41.846-.538.318-.935-.4-.41zm-.456-.372v.001zm.005-.003a.092.092 0 0 0-.005.003c.002 0 .003-.002.005-.003z"/>
</svg>
