<svg xmlns="http://www.w3.org/2000/svg" width="80" height="80" viewBox="0 0 80 80">
    <g fill="none" fill-rule="evenodd">
        <path fill="#FDD700" d="M6.025 42.022C18.39-1.924 75.759 10.64 74.405 47.468c-5.959-1.373-10.9-.187-15.262 2.475-4.577 2.017-10.218 4.222-15.654.868-13.357-9.359-24.771-11.993-37.464-8.789z"/>
        <path fill="#D8201D" d="M0 47.57c.644-2.325 15.72-10.62 34.867-.168 19.148 10.433 17.869 12.18 30.273 13.133-4.913 4.315-16.309 8.985-30.16 1.205C22.66 53.8 11.834 48.037 0 47.57zm48.925 6.595c3.1-.692 6.351-1.401 9.602.205 3.362 2.298 5.641 3.484 9.61 3.372-3.595 1.747-6.678 1.635-10.32.616-3.176-.784-5.931-2.783-8.892-4.193zm7.304-1.523c4.324-2.56 6.613-1.588 9.452-.458 2.718 1.233 4.904 1.542 7.351 1.317-1.896 2.364-3.848 3.148-7.855 2.195-3.195-.513-5.707-2.55-8.948-3.054zm5.492-2.653c3.194-2.204 6.146-2.4 10.601-1.868 2.718.393 5.23 1.233 7.678 1.962-2.475 1.111-4.623 3.577-9.415 1.756-3.596-1.83-5.119-1.541-8.864-1.85z"/>
    </g>
</svg>
