<svg xmlns="http://www.w3.org/2000/svg" width="80" height="80" viewBox="0 0 80 80">
    <path fill="#EC1D25" fill-rule="evenodd" d="M38.576 38.152v-.37h5.538c-.123-2.217.985-4.928 2.462-6.53.615-.74 1.6-1.479 2.585-2.095 3.569.986 6.277 4.19 6.277 8.133 0 3.696-2.339 6.777-5.785 7.886-4.554-2.957-5.17-5.175-5.539-7.024h-5.538zM80 55.12L0 38.608h43.815C44.8 44.77 53.17 48.466 63.877 51.3c5.17 1.356 10.83 2.465 16.123 3.82zM42.471 24.88H61.18c-2.83 0-5.292.986-7.385 1.725-6.769 2.095-10.092 5.915-10.092 10.72H17.61C21.917 28.453 33.363 24.88 42.47 24.88z"/>
</svg>
