<svg xmlns="http://www.w3.org/2000/svg" width="80" height="80" viewBox="0 0 80 80">
    <g fill="none" fill-rule="evenodd">
        <path fill="#006CB5" d="M58.284 33.755c-2.363-2.25-9.339-6.413-12.04-7.2-4.725-2.139-9.226-1.351-14.627-.676-20.365 2.588-15.977-9.001-25.991-8.776 2.7 7.426 3.038 10.126 3.038 14.627 0 1.913-.113 4.5 0 8.664-1.238-1.688-1.8-11.477-2.588-14.74-1.35-5.513-3.15-7.089-6.076-10.577 18.79-3.825 10.24 8.777 28.917 8.664 7.089-.112 9.902-1.575 17.215 1.35 3.038 1.238 10.014 5.964 12.152 8.664zM29.592 51.983l-6.526 7.089c-6.976 2.7-13.615 6.413-14.402 6.638v-7.538c4.5-1.688 13.052-5.064 20.928-6.189zm18.003-11.14l2.7-2.925c3.6 2.476 7.314 5.851 11.59 9.902 2.925 2.7 5.4 4.163 7.538 5.063 3.038 1.35 5.851 1.35 7.877 1.463-5.626 1.575-9.564.45-14.628-2.588-.562-.337-1.125-.788-1.8-1.125-5.176-3.488-8.889-7.201-13.277-9.79zm13.39 16.541c-7.652-3.6-12.49-7.651-20.141-9.226l4.05-4.389c5.289 2.476 9.452 6.414 15.303 10.352 2.588 1.688 6.413 3.263 10.239 4.163 3.488.9 7.089 1.013 9.564.675 0 0-8.326 3.488-19.015-1.575zm-27.455-9.79c-7.989.338-19.24 4.164-24.866 5.627v-6.976c5.85-2.026 15.865-4.613 23.966-4.839 2.25 0 4.276.113 6.189.45l-5.289 5.739z"/>
        <path fill="#EB7E3C" d="M80 63.46c-3.938 2.363-9.226 1.913-13.727.675-3.826-1.013-7.539-2.475-11.252-3.938-8.551-3.376-14.177-4.726-22.503-3.713-1.238.112-2.476.45-3.826.787l5.288-5.738h.788c11.477 0 16.765 4.613 26.329 9.114C71.787 65.71 79.662 63.46 80 63.46zM10.127 42.42c2.362-1.801 14.74-6.752 17.665-7.54 9.114-2.25 14.852-1.35 19.915 1.463l-2.812 3.15c-3.038-1.237-6.414-2.025-10.802-1.912-8.101.112-18.003 2.7-23.966 4.838zm29.592 5.512c-.788-.112-1.576-.225-2.363-.225l4.613-5.063c.675.225 1.238.45 1.913.788l-4.163 4.5z"/>
    </g>
</svg>
