<svg xmlns="http://www.w3.org/2000/svg" width="80" height="80" viewBox="0 0 80 80">
    <path fill="#004846" fill-rule="evenodd" d="M12.433 32.475c.739-1.846.985-4.307 1.6-6.276 1.723-3.2 10.092-2.707 10.954.985 0 5.783-2.339 8.49-5.662 9.968C3.695 43.305 1.111 50.072 3.08 56.595c4.307 7.507 15.753 4.307 22.03-5.045C43.324 21.769 47.878 16.724 80 15.616c-1.6 2.092-1.23 8.86-11.323 13.167-3.938.862-9.6 2.462-16.122 3.815-10.707 2.338-16.492 7.015-29.538 24.858C4.68 75.67-12.427 48.842 12.433 32.476zm7.63 29.78C27.08 55.98 31.51 47.736 36.926 42.69c8-7.63 17.968-8.737 27.814-10.583-1.477 5.415-3.446 11.076-15.507 12.43-18.707 0-21.415 17.843-29.168 17.72zm29.292-7.137c-3.077-2.092-5.784-1.846-8.123 2.092-4.554 11.322-16.245 8-11.322-1.353 3.446-6.03 17.722-8.86 19.445-.739z"/>
</svg>
