<svg xmlns="http://www.w3.org/2000/svg" width="80" height="80" viewBox="0 0 80 80">
    <path fill="#09F" fill-rule="evenodd" d="M5.447.026c1.051-.22.201.98 1.528 2.239.669.634.131 1.628.783 2.558.69.984 1.567 1.492 2.124 3.707.823 3.266-.64 3.724-1.093 6.197-.468 2.55.009 3.53.833 4.306.72.679 1.873.777 3.361 1.584 1.183.642 3.49.255 5.041.27 4.117.04 5.437 9.106 4.352 12.213-1.177 3.37-.655 7.415-.475 11.016.443 8.869 7.554 23.04 20.826 29.937 5.84 3.035 12.962 3.876 21.402 3.022 9.454-.957 12.233-4.375 13.03-3.244 1.311 1.864-8.077 6.44-23.143 6.156-11.768-.221-23.964-8.504-30.112-16.93-3.165-4.339-4.646-9.389-5.681-9.046-1.515.5 3.024 9.93 5.555 13.64 3.508 5.142 7.983 8.964 6.587 9.062-2.683.188-8.719-5.963-12.9-12.495-3.355-5.243-6.177-11.623-7.36-15.947-.294-1.076-.974-1.668-1.52-1.431-2.286.994 2.15 8.936 5.285 14.57.71 1.274-.822 1.23-1.041.942-6.35-8.35-17.804-28.388-10.447-47.675.498-1.305-3.075-5.902 1.122-8.957.368-.268-.117-5.262 1.943-5.694z"/>
</svg>
