<svg xmlns="http://www.w3.org/2000/svg" width="80" height="80" viewBox="0 0 80 80">
    <path fill="#E60000" fill-rule="evenodd" d="M34.607 39.274C28.967 24.86 8.577 35.72 0 21.2c3.22 18.539 26.907 11.158 34.607 18.074zm6.48 8.277c-6.696-12.567-26.25-.204-36.477-13.537C9.928 52.73 33.073 42.002 41.087 47.55zm7.469 9.717C41.86 44.7 21.169 58.738 11.51 45.8c5.572 18.78 29.031 5.92 37.046 11.468zM73.959 36.33c1.8-.055 3.8.88 6.041 2.98-9.325.585-2.606 19.383-15.522 19.49-9.704.08-13.439-9.927-18.972-16.209-4.06-4.608-9.48-9.743-14.939-12.367a.54.54 0 0 1 .028-.996c13.003-4.314 21.682 20.42 29.568 20.178 8.517-.263 8.367-12.908 13.796-13.076z"/>
</svg>
