<svg xmlns="http://www.w3.org/2000/svg" width="80" height="80" viewBox="0 0 80 80">
    <g fill="none" fill-rule="evenodd" transform="translate(0 5)">
        <circle cx="49.336" cy="34.155" r="30.664" fill="#F7931E"/>
        <path fill="#2E3192" d="M51.717 67.743c-20.343-.056-36.586-16.832-39.444-34.85 2.307.458 5.455 1.831 7.762 2.308 3.437 15.458 14.945 27.582 31.682 32.542zm-.607 1.447c-14.72.99-25.368-4.689-35.231-12.861C3.989 44.896.803 32.782 0 21.368c1.98 1.102 4.138 2.157 5.268 4.829 1.149 2.652 3.092 4.94 4.978 5.193 2.326 20.726 19.774 36.222 40.864 37.8zM10.92.754c2.55-.42 4.044 1.42 4.063 3.035.093 1.756.13 2.578.205 4.334 1.224 4.83 4.512 2.578 5.082-.093 1.008-3.69 2.82-5.539 5.015-6.24 2.391-.56 4.409-.616 6.735-.084 5.959 2.242 11.507 5.558 17.027 8.575 2.4 1.41 4.175 1.812 6.772 1.522-2.4 2.56-5.875 1.952-8.603.346-1.83-1.028-3.726-2.083-5.501-3.148-2.307-1.55-4.044-.971-1.775 1.084 2.354 2.027 5.1 4.296 7.977 4.53-1.56 1.504-3.83.878-6.464-.654-2.634-1.523-5.538-3.662-7.976-4.353-1.018-.13-2.064-.112-2.485.822-.13.271.458.178 1.093.14.42-.018 1.214.038 1.672.44.458.392 6.604 5.109 8.705 5.305-2.176 1.046-4.829.625-7.79-1.644-1.756-1.15-3.465-2.485-5.548-.71 2.998-.168 4.334 3.587 6.492 3.876-2.102 1.448-4.073-.458-6.053-.822-3.474-.29-6.454 1.224-6.24 5.539.72 4.81 4.25 4.427 8.762 6.146 1.887.878 3.428 1.672 5.11 2.84 3.222 2.213 5.463 4.614 8.415 7.173 6.417 6.454 10.9 4.427 9.294-1.392-1.224-2.923-1.103-5.67-.038-7.594.159 1.485-.075 2.877.075 4.446.233 2.382 1.55 4.082 1.373 6.697-.13 2.289-3.204 5.4-8.752 1.607-4.26-3.456-9.527-9.677-13.628-11.358-.345-.15-.803.168-.345.514 5.137 1.99 12.805 13.795 19.521 14.636 2.354.056 4.923-.355 7.613-.551-3.55 1.373-7.23 1.756-9.79.99-5.435-1.999-8.854-7.519-15.018-11.638-6.146-4.119-7.687-3.68-1.794.019 4.96 3.512 9.658 7.846 12.937 12.348 3.306 4.52 6.529 8.836 9.303 12.422-5.558-3.493-9.397-11.89-15.505-17.036-5.474-5.082-10.63-8.397-16.85-11.61-4.83-2.69-10.975-5.586-14.198-11.947-1.429-2.494-1.28-7.341.094-10.536 1.382-3.185 2.54-5.763 1.018-7.976z"/>
    </g>
</svg>
