<svg xmlns="http://www.w3.org/2000/svg" width="80" height="80" viewBox="0 0 80 80">
    <path fill="#05164C" fill-rule="evenodd" d="M62.75 72.479c.727-1.265 1.353-2.662 2.187-3.8 2.111-1.904 4.137-4.012 5.904-6.495 3.394-4.602 5.94-10.508 6.827-16.973.83-5.679.224-11.671-1.508-16.937-1.703 1.1-3.638 1.21-5.373 2.184-.57.319-1.047.868-1.58 1.28-1.434-.111-2.899-.852-3.817-2.431.953-.935 1.934-2.076 3.166-2.118 1.03.005 2.063-.047 3.091.054 1.359.185 2.732-.012 4.074-.324-2.208-5.777-5.56-10.633-9.467-14.323C60.138 6.786 52.836 3.584 45.472 2.5c-4.873-.65-9.822-.45-14.636.803-7.519 1.89-14.852 6.198-20.514 13.342-4.22 5.318-7.386 12.524-7.976 20.432-.468 6.032.559 12.22 2.785 17.454A37.878 37.878 0 0 0 19.21 71.587c4.397 2.936 9.164 4.806 14.01 5.674.065.721.25 1.4.518 2.026-1.337.292-2.652-.34-3.97-.563-3.69-1.03-7.33-2.491-10.764-4.636A40.079 40.079 0 0 1 3.522 56.465C1.034 51.011-.301 44.502.058 38.06c.28-6.248 2.084-12.282 4.85-17.242 2.841-5.23 6.632-9.388 10.764-12.574C22.978 2.677 31.368.097 39.693 0c6.564-.017 13.155 1.485 19.277 4.777 5.23 2.837 10.162 6.974 14.034 12.613a39.73 39.73 0 0 1 6.27 15.006c1.056 5.332.94 11.063-.216 16.347-1.316 5.889-3.905 11.16-7.142 15.396-1.927 2.629-4.152 4.813-6.463 6.76-.996.843-2.057 1.528-3.044 2.39l.341-.81zm-.406-.29c-.986 1.631-2.5 2.561-3.798 3.302-1.847.94-3.724 1.802-5.65 2.383 1.506-3.957 1.848-8.657 1.107-12.982-.628-3.946-2.228-7.453-4.083-10.54 4.626.408 9.207-1.121 13.561-3.143 1.826 1.335 2.835 4.132 3.033 6.87-.002 1.67.117 3.38-.26 5-.575 3.452-2.086 6.177-3.728 8.82l-.182.29zM24.046 21.738c-.447 1.775-1.041 3.541-1.014 5.46-.088 2.23.58 4.331 1.285 6.286-.66.247-1.321.5-1.985.731-1.481-3.914-2.203-8.333-2.18-12.731.107-1.972 1.949-2.756 3.095-1.908.582.34 1.053 1.3.799 2.162zm-4.62.02c-.035 4.493.856 8.909 2.309 12.912-.374.36-.754.707-1.137 1.05-2.429-4.03-4.292-8.787-5.074-13.927-.16-1.975 1.718-2.929 2.855-2.234.68.306 1.124 1.218 1.046 2.199zm-4.25 2.456c1 4.473 2.811 8.54 4.987 12.12-.229.405-.458.81-.682 1.223a38.248 38.248 0 0 1-7.915-12.29 10.333 10.333 0 0 1-.668-2.039c.294-2.048 2.282-2.8 3.423-1.574.595.586.653 1.673.855 2.56zm11.158 3.979c-.485 1.99.01 4.14.83 5.825-.679-.257-1.37-.477-2.079-.512-1.17-2.53-1.514-5.661-1.113-8.587.235-1.229.484-2.711 1.438-3.25 1.27-.947 3.172.652 2.688 2.728-.71 1.144-1.457 2.32-1.764 3.796zm37.239-3.502c.603-.244 1.26-.188 1.698.497-.043 1.226-.103 2.449-.078 3.677-3.738-1.495-7.975-.939-11.28 1.98-.285.234-.54.556-.86.706-1.058-.037-2.116-.212-3.175-.14.3.946.753 1.776 1.227 2.567-2.759 3.942-4.637 9.11-5.048 14.558-1.644-.4-2.808-2.132-4.179-3.277.224-.096.453-.19.677-.276-.19-.267-.381-.534-.572-.799.093-.54.413-.855.748-1.11-.126-.348-.494-.624-.384-1.07.168-.335.413-.578.64-.83-.44-.778.093-1.55.627-1.846-.116-.18-.23-.36-.347-.538.235-.544.578-.964 1.009-1.194-.083-.28-.168-.556-.255-.83.286-.373.62-.655 1.002-.786-.01-.43-.116-.922.137-1.265.253-.243.554-.356.839-.495-.025-.136-.08-.407-.106-.543.065-.158.19-.477.254-.635.244-.156.484-.312.725-.465-.043-.944.616-1.337 1.177-1.505-.18-1.04.635-1.399 1.225-1.473.063-1.048.803-1.495 1.488-1.371.18-.378.361-.801.679-.986.326-.077.658-.055.985-.067.34-.766.987-1.142 1.626-.914.379-.804 1.115-1.115 1.759-.74.355-.938 1.18-1.05 1.844-.733.348-.32.696-.742 1.142-.724.336.047.635.264.94.437l.278-.418c.566-.153 1.189-.185 1.656.361.614-.598 1.352-.358 1.902.247zm-44.34 13.528c-.078.43-.156.862-.24 1.295A46.696 46.696 0 0 1 7.334 27.68c-.053-.726-.156-1.62.3-2.157.735-1.142 2.042-1.253 2.956-.452a38.847 38.847 0 0 0 8.641 13.147zm46.922-7.258c.902.793 1.976 1.033 3.015 1.26-.076.534-.152 1.068-.23 1.601-.614-.417-1.226-.911-1.924-1.008-1.258-.375-2.772-.264-3.797.917-.445.507.01 1.216.257 1.68-.37.606-.915 1.407-.583 2.244.575.989 1.55 1.248 2.425 1.231.87-.106 1.6-.815 2.408-1.191.089 1.715-.173 3.9-1.477 4.64-1.608.54-3.286.016-4.908.421-.862.158-1.727.512-2.401 1.297-.266-.217-.526-.45-.787-.674-.058-.247-.116-.495-.175-.737-.419-.55-.424-1.42-.821-1.999.068-.101.207-.299.276-.398-.155-.26-.314-.514-.471-.768.352-.339.24-.836.072-1.266.164-.281.267-.608.323-.956l-.354-.6c1.186.039 2.54.195 3.48-1.009.84-.936.26-2.97-.74-3.188-2.032-.355-4.084-.442-6.126-.605 3.165-3.099 7.412-4.154 11.113-2.39.552.351.91 1.07 1.425 1.498zM19.07 40.432c.09.425.173.855.243 1.288-4.395-1.7-8.668-4.11-12.52-7.493-.456-.428-.994-.779-1.306-1.434-.238-.778-.204-1.801.314-2.36.473-.736 1.23-.76 1.89-.798 3.324 4.431 7.236 7.97 11.379 10.797zm41.277-5.442c-.541 1.115-1.579 1.211-2.461 1.268l-.352-.652c-.24-.01-.482-.013-.724-.005-.418-.062-.718.615-1.142.41-1.205-.341-2.463-.694-3.468-1.73-.582-.534-.988-1.332-1.358-2.13 3.011.368 6.05.195 9.047.808.386.539.653 1.265.458 2.031zm-29.163 2.944c-.466.26-.937.511-1.38.842-1.776-.897-3.42-2.456-4.587-4.515.99.208 2.057.282 2.892 1.132.953.999 1.978 1.873 3.075 2.54zm-1.804 1.334l-.396 1.144c-2.028-.538-3.98-1.618-5.772-3.025-.447-.308-.893-.929-.775-1.675.346-1.45 1.925-1.735 2.614-.61 1.222 1.774 2.705 3.175 4.329 4.166zm26.651-1.124c-.135.242-.269.486-.402.731.11.213.222.423.332.635-.226.541-.073 1.048.164 1.513-.105.63.142 1.117.48 1.502l-.103.65c.236.188.474.37.71.559.075.276.033.674.259.83.606.427.904 1.426 1.626 1.574.534 1.023 1.629.648 2.231 1.614-2.719.954-5.486 1.648-8.281 2.016-2.119.188-4.266.134-6.342-.524.469-5.426 2.07-10.685 4.745-14.773 1.478 1.098 3.092 1.846 4.765 2.101-.278.462-.576 1.035-.184 1.572zm11.755-1.11c-.843.751-1.79 1.396-2.82 1.364-.525-.042-1.117-.21-1.447-.828-.215-.491-.343-1.255.065-1.633.642-.623 1.532-.633 2.268-.346.678.39 1.241 1.082 1.934 1.443zm-48.159 5.452c.278.407.542.832.805 1.255-3.96-.504-7.892-1.493-11.69-3.126-.742-.344-1.514-.606-2.214-1.1-.521-.363-.84-1.149-.761-1.952-.05-.959.595-1.592 1.118-2.041.482.2.875.662 1.321.968 3.594 2.672 7.466 4.61 11.421 5.996zm50.746-.97c-.855.144-1.715.075-2.567-.088.473-1.792.462-3.734.225-5.59.56.5 1.162 1.016 1.482 1.848.438 1.206.52 2.576.86 3.83zm-41.522-.49c.146.437.29.874.43 1.316-3.102.067-6.366-.14-9.186-2.08-.127-.559-.394-1.184-.141-1.75.44-1.228 1.689-1.584 2.511-.868 1.983 1.575 4.141 2.744 6.386 3.381zm17.682 9.434c3.562 4.206 6.586 9.769 7.293 16.278.41 3.905-.108 7.98-1.548 11.41-1.664.413-3.31 1.023-5.005 1.151 1.434-2.713 2.235-6.022 2.345-9.36-.007-4.735-1.649-9.191-3.93-12.65-4.054-6.302-9.524-10.402-14.928-14.141-.738-.393-1.19-1.555-1.032-2.612.377-1.572 1.83-2.494 2.926-1.737 4.821 3.417 9.635 6.986 13.88 11.661zM22 45.43c-4.363.46-8.769.202-13.076-.873-1.077-.257-1.703-2.322-.857-3.405 3.919 1.75 8.015 2.58 12.11 3.062.717-.002 1.287.65 1.823 1.216zm8.549-1.488c-1.765.282-3.528.618-5.303.72-1.162.083-2.544.662-3.499-.572-.546-.595-.658-1.551-.577-2.453 2.566.934 5.218 1.445 7.874 1.285.622-.126 1.043.583 1.505 1.02zm40.947 3.25l-.076.052-.357-.413c-.856-.17-1.823-.022-2.532-.83-.833-1.026-.98-2.662-1.02-4.11.98.099 1.967.208 2.947.052.347 1.747.787 3.465 1.038 5.249zm-4.858.232c.107 1.317 1.296 2.242 2.15 1.582.189-.166.506-.43.404-.796-.076-.734-.722-.974-1.171-.732.314.233.626.472.936.717-.222.237-.42.623-.738.588-.615.042-1.037-.687-1.375-1.29.336-.499.718-.929 1.178-1.19.626.422 1.281.842 1.989.906.469.08.958.054 1.407.274.094.198.182.4.265.61-.332.893-.91 1.6-1.62 1.879-.927.578-1.961.314-2.945.376-.936.096-1.923-.413-2.506-1.441-.39-1.179.841-1.807.769-2.933.025-.416-.29-.63-.448-.925-.673-.155-1.364-.007-1.89.623.617-.05 1.232-.148 1.844-.274.128 1.038-.417 1.858-.852 2.61-.698-.922-1.492-1.871-2.5-2.01-.636-.054-1.228-.378-1.809-.7-.184-.335-.326-.71-.482-1.072.877-.63 1.834-1.033 2.82-1.154 1.626-.296 3.37.512 4.89-.622.145 1.215.426 2.394.877 3.46-.505.325-1.001.748-1.193 1.514zm-46.222.252c-1.4.084-2.779.472-4.179.564-1.193.113-2.472.68-3.618-.037-.66-.39-.954-1.365-1.086-2.271 3.674.425 7.383.528 11.055.022.478.356.94.749 1.38 1.183-1.19.082-2.363.403-3.552.54zm7.047 1.478c-.698.072-.961-1.06-.62-1.767 2.25-.22 4.48-.69 6.726-.949 1.021-.326 1.85.712 2.667 1.36-2.92.513-5.848.924-8.773 1.356zm-11.192 1.404c-.651.059-1.017-1.429-.305-1.703 1.586-.175 3.158-.59 4.75-.712 1.27-.158 2.536-.531 3.815-.467.632.339 1.15.961 1.704 1.485-3.331.341-6.63 1.108-9.964 1.397zm33.375 3.328a42.476 42.476 0 0 0-2.766-3.709c-.116-.143-.235-.301-.277-.516 1.384.533 2.848.615 4.28.684 3.104-.054 6.184-.724 9.199-1.7.489-.143.956-.467 1.461-.45.588.808 1.061 1.76 1.62 2.607-4.31 2.13-8.916 3.48-13.517 3.084zm-18.95-2.824c-.578.079-1.27.326-1.757-.255-.196-.44-.162-1.265.294-1.34 2.559-.43 5.128-.743 7.69-1.16.53.516 1.078.993 1.613 1.494-2.596.594-5.228.816-7.84 1.26zm-5.167.524c-.879.18-1.763.309-2.65.388-1.359.25-2.721.477-4.09.57-.526-.128-.888-1.005-.52-1.623 2.813-.566 5.65-.845 8.47-1.322.551.497 1.087 1.018 1.628 1.534-.933.3-1.896.245-2.838.453zm13.235.677c-2.393.321-4.776.773-7.172 1.02-.417-.084-.581-.637-.733-1.097l.332-.595c2.642-.48 5.3-.75 7.937-1.26.487.506.987.99 1.469 1.502-.595.244-1.218.311-1.833.43zm-10.702 3.773c-1.625.119-3.228.606-4.855.675a34.56 34.56 0 0 0-.464-.482c-.023-.383-.027-.768-.032-1.151 2.771-.576 5.566-.935 8.356-1.266.557.413 1.042.981 1.542 1.51-1.512.287-3.036.39-4.547.714zm7.481 1.473c-.659.124-1.128-1.317-.431-1.698 2.609-.499 5.243-.746 7.852-1.243.428.54.846 1.088 1.243 1.666-2.888.425-5.772.92-8.664 1.275zm1.43 2.224c-.468-.348-.703-1.023-.45-1.71 2.668-.58 5.37-.768 8.043-1.28.36.544.708 1.105 1.029 1.693-2.876.42-5.747.862-8.623 1.297zm-9.03 1.125c-.407.054-.902.106-1.185-.388-.289-.277-.103-.761-.1-1.147 1.527-.502 3.106-.507 4.65-.82 1.162-.23 2.337-.332 3.506-.41.482.373.817 1 1.205 1.527-2.69.432-5.387.77-8.076 1.238zm10.844.936c-.72.235-1.093-.966-.754-1.712 2.622-.349 5.242-.724 7.858-1.157.288.564.597 1.11.884 1.678-2.665.386-5.323.82-7.988 1.191zm8.933 1.053c-2.63.331-5.247.833-7.875 1.166-.596-.046-.894-.909-.609-1.606 1.312-.511 2.698-.457 4.04-.726 1.253-.297 2.526-.304 3.784-.527.206.574.424 1.14.66 1.693zm-8.985 1.15c-1.08-.003-2.142.31-3.214.459-1.798.163-3.576.684-5.382.684-.58-.066-.635-1.013-.431-1.594 2.71-.548 5.438-.855 8.16-1.257.291.565.584 1.131.867 1.707zm9.628 1.089c-1.155.183-2.304.437-3.465.539-1.378.188-2.75.598-4.14.529-.296.032-.432-.406-.627-.626.087-.309-.028-.877.29-.963 2.47-.566 4.974-.767 7.46-1.174.162.563.326 1.127.482 1.695zm.478 2.36c-2.39.329-4.774.803-7.169 1-.628-.15-.61-1.022-.555-1.707 1.315-.069 2.609-.39 3.915-.56 1.164-.07 2.311-.362 3.468-.525.104.6.22 1.196.34 1.792zm-8.17.996c-2.252.282-4.493.697-6.743.99-.66.075-1.449.485-1.994-.241-.137-.497-.1-1.268.374-1.342 2.562-.366 5.12-.751 7.68-1.142.228.578.447 1.162.683 1.735zm8.159 3.756c-.521.097-1.045.19-1.57.23-1.441.15-2.867.643-4.317.561-.296.047-.435-.398-.646-.593.03-.314.074-.623.128-.93 2.134-.637 4.335-.64 6.49-1.124-.022.618-.06 1.236-.085 1.856zm-7.031.781c-2.627.457-5.258.905-7.901 1.157-.603.03-.922-1.305-.343-1.673 1.268-.156 2.526-.48 3.8-.579 1.385-.165 2.758-.57 4.155-.546.081.551.182 1.097.289 1.641zm.26 2.397c-2.583.376-5.16.793-7.745 1.14-.608-.067-.913-.96-.622-1.666 1.03-.319 2.091-.27 3.13-.502 1.682-.36 3.387-.44 5.072-.788.04.608.1 1.213.164 1.816zm5.533 1.76c-1.384.042-2.74.509-4.124.55-.57.06-1.063-1.302-.437-1.64 1.707-.531 3.471-.484 5.196-.865-.202.657-.442 1.29-.635 1.955zm-5.562.536c-1.148.166-2.288.445-3.441.534-1.386.138-2.752.618-4.147.556-.397.057-.61-.477-.89-.759.124-.264.245-.526.358-.793 1.7-.52 3.448-.551 5.166-.895 1.003-.202 2.019-.222 3.024-.38a50.562 50.562 0 0 0-.07 1.737zm24.747-44.41c.977.13 1.9.77 2.56 1.761-1.002-.588-1.997-1.28-3.094-1.475-.723-.076-1.542-.017-2.09.727 1.892-.65 4.111-.072 5.358 2.115-1.339-.954-2.811-2.036-4.374-1.591-.469.037-1.008.457-1.432.014-.321-.207-.165-.832.08-1.037.557-.487 1.228-.648 1.876-.712.43-.035.873-.274 1.291-.032l-.175.23zM31.951 46.12c-1.155.069-2.288.417-3.441.509-1.155.084-2.292.452-3.448.487-.547-.018-1.038-1.377-.38-1.659 1.123-.402 2.296-.375 3.438-.612 1.038-.21 2.084-.302 3.125-.435.843.314 1.61.926 2.409 1.398-.563.146-1.131.265-1.703.312zm-1.384 7.112c-1.537.257-3.084.4-4.616.731-1.678.112-3.332.653-5.02.589a1.96 1.96 0 0 1-.317-1.52c2.757-.704 5.563-.9 8.343-1.36.54.515 1.083 1.019 1.61 1.56zm3.34 2.145c-.479.114-.785-.487-1.1-.867.147-.29.291-.581.434-.87 2.567-.378 5.135-.747 7.7-1.154.677.133 1.116.99 1.637 1.522-2.881.57-5.783.897-8.671 1.369zm-8.291 3.37c-.404.132-.675-.281-.937-.624.05-.376-.05-1.046.38-.991 2.635-.628 5.315-.804 7.96-1.305.465.526.911 1.085 1.353 1.646-2.923.358-5.83.96-8.756 1.275zm6.874 3.747c-1.3.203-2.598.539-3.913.462-.127-.19-.257-.378-.387-.566.024-.358.047-.716.082-1.07 2.722-.415 5.445-.828 8.171-1.188.361.531.72 1.067 1.05 1.636-1.677.118-3.327.59-5.003.726zm-.747 4.87c-.467.11-.792-.414-1.03-.881.171-.361.303-.94.695-.892 1.264-.102 2.51-.443 3.772-.53 1.28-.115 2.539-.553 3.822-.555.285.504.507 1.07.74 1.62-2.658.52-5.33.856-7.999 1.239zm17.215 2.388c-1.396.173-2.779.546-4.18.64-.794.084-1.583.408-2.384.27-.561-.07-.839-1.192-.35-1.636 1.074-.314 2.18-.294 3.262-.52 1.177-.244 2.366-.345 3.553-.461.032.568.06 1.139.1 1.707zm-7.645.986c-2.609.321-5.207.774-7.814 1.15-.588.017-.913-.838-.767-1.555 1.378-.539 2.82-.517 4.23-.793 1.282-.267 2.585-.28 3.864-.584.195.576.348 1.177.487 1.782zm7.116 3.791c-1.73.403-3.48.61-5.23.79-.15-.152-.303-.306-.457-.456l-.07-1.019c.64-.501 1.404-.316 2.102-.506 1.33-.307 2.681-.314 4.01-.62-.134.595-.26 1.198-.355 1.811zm-2.062 4.982c-1.2.299-2.421.316-3.636.395a28.57 28.57 0 0 1-.111-1.571c1.58-.178 3.148-.537 4.73-.682-.332.615-.617 1.28-.983 1.858zm-4.529.477c-2.665 0-5.351.133-7.986-.524 2.716-.423 5.444-.729 8.154-1.243-.056.588-.108 1.179-.168 1.767z"/>
</svg>
