<svg xmlns="http://www.w3.org/2000/svg" width="80" height="80" viewBox="0 0 80 80">
    <g fill="none" fill-rule="evenodd" transform="translate(0 10.96)">
        <circle cx="52.733" cy="27.11" r="27.11" fill="#F78526"/>
        <path fill="#282E67" d="M45.77 20.717c-3.594 6.082-7.965 10.712-15.861 14.91-7.257 3.543-14.428 6.134-22.065 8.329-3.162 1.192-3.23 1.572.38 1.417 6.324-1.383 12.786-2.851 19.058-4.545 9.59-2.954 14.22-6.928 19.11-13.805 2.488-3.075 3.3-12.838-.622-6.306z"/>
        <path fill="#282E67" d="M54.53 14.825c-1.572 7.067-4.06 12.388-10.073 17.97-8.26 7.031-16.95 12.733-27.524 17.346C11.23 52.336 6.168 54.616 0 56.621c0 .363.536.656 1.417.397 5.045-1.814 4.613-.587 9.365-1.382 8.95-3.68 27.541-10.384 37.148-19.04 8.708-7.741 9.192-15.292 9.658-21.287.242-2.385.311-3.076-.622-3.128-1.503-.104-2.09.743-2.436 2.644z"/>
        <path fill="#282E67" d="M56.638 28.855c-2.47 7.136-13.857 14.392-18.488 17.71-4.63 3.317-4.527 4.13-7.274 5.909-2.764 1.762-4.492 2.367-7.948 3.663-3.438 1.313-3.594 2.816 1.123 1.14 6.255-2.315 10.523-3.94 16.501-7.326 6.963-4.388 15.067-8.863 17.97-17.502.535-2.057 1.26-6.255-.363-6.238-1.124-.104-1.193 1.365-1.521 2.644z"/>
    </g>
</svg>
