<?xml version="1.0" encoding="utf-8"?>
<!-- Generator: Adobe Illustrator 22.1.0, SVG Export Plug-In . SVG Version: 6.00 Build 0)  -->
<svg version="1.1" id="Layer_1" xmlns="http://www.w3.org/2000/svg" xmlns:xlink="http://www.w3.org/1999/xlink" x="0px" y="0px"
	 viewBox="0 0 24 24" style="enable-background:new 0 0 24 24;" xml:space="preserve">
<style type="text/css">
	.st0{fill:#CCCCCC;}
</style>
<g>
	<path class="st0" d="M5,5C6.9,3,9.3,2,12,2s5.1,1,7,2.9S22,9.3,22,12s-1,5.1-2.9,7S14.8,22,12,22S6.9,21,5,19s-2.9-4.3-2.9-7
		S3.1,6.9,5,5z M6.4,17.6C8,19.2,9.9,20,12,20s4.1-0.8,5.6-2.4c1.6-1.6,2.4-3.5,2.4-5.6s-0.8-4.1-2.4-5.6C16.1,4.8,14.2,4,12,4
		S8,4.8,6.4,6.4S4,9.8,4,12S4.8,16.1,6.4,17.6z M12.6,7v5.2l4.5,2.7l-0.7,1.3L11.1,13V7H12.6z"/>
</g>
</svg>
