<?xml version="1.0" encoding="utf-8"?>
<!-- Generator: Adobe Illustrator 22.1.0, SVG Export Plug-In . SVG Version: 6.00 Build 0)  -->
<svg version="1.1" id="Layer_1" xmlns="http://www.w3.org/2000/svg" xmlns:xlink="http://www.w3.org/1999/xlink" x="0px" y="0px"
	 viewBox="0 0 24 24" style="enable-background:new 0 0 24 24;" xml:space="preserve">
<path d="M16.9,20.5L13,13.1L9.1,17l0.4,2.5l-1.1,1.1l-1.8-3.2l-3.2-1.8l1.1-1.1L7,14.9l3.9-3.9L3.5,7.1l1.4-1.4l9.2,2.1L18,3.9
	c0.6-0.6,1.5-0.6,2.1,0c0,0,0,0,0,0c0.6,0.6,0.6,1.5,0,2.1c0,0,0,0,0,0l-3.9,3.9l2.1,9.2L16.9,20.5L16.9,20.5z"/>
</svg>
