<?xml version="1.0" encoding="utf-8"?>
<!-- Generator: Adobe Illustrator 22.1.0, SVG Export Plug-In . SVG Version: 6.00 Build 0)  -->
<svg version="1.1" xmlns="http://www.w3.org/2000/svg" xmlns:xlink="http://www.w3.org/1999/xlink" x="0px" y="0px"
	 viewBox="0 0 400 400" style="enable-background:new 0 0 400 400;" xml:space="preserve">
<style type="text/css">
	.st0{fill:#FFFFFF;stroke:#FFFFFF;stroke-width:5.890138e-02;stroke-miterlimit:10;}
	.st1{fill:#FFFFFF;}
	.st2{fill:none;stroke:#FFFFFF;stroke-width:9.4242;stroke-miterlimit:10;}
</style>
<g id="Layer_2">
</g>
<g id="Layer_1">
	<g>
		<path class="st0" d="M-378.4,194.6c3.1,3.1,7.1,4.7,11.4,4.7l45.8,0l19.1,19.1l-9.3,0c-2.3,0-4.1,1.8-4.1,4.1
			c0,2.3,1.8,4.1,4.1,4.1l17.4,0l37.1,37.1c0.8,0.8,1.8,1.2,2.9,1.2l13.3,0c1.3,0,2.6-0.6,3.3-1.7c0.8-1.1,1-2.5,0.5-3.7l-20.8-60.1
			l11.8,0l25.7,25.7c0.8,0.8,1.8,1.2,2.9,1.2l6.7,0c1.3,0,2.6-0.6,3.3-1.7c0.8-1.1,1-2.4,0.5-3.7l-8.6-24.8c1.8-0.9,3.6-1.9,5.2-3.2
			c2.8-2.1,4.5-5.4,4.7-8.9c0.2-3.5-1-6.9-3.5-9.4c-0.4-0.4-0.8-0.7-1.2-1.1c-1.6-1.2-3.3-2.3-5.1-3.2l8.5-24.2
			c0.4-1.2,0.3-2.5-0.4-3.6c-0.2-0.2-0.3-0.5-0.5-0.7c-0.7-0.7-1.6-1.1-2.5-1.2l-6.7-0.6c-1.2-0.1-2.4,0.3-3.2,1.2l-25.7,25.7l-11,0
			l20-56.9c0.4-1.2,0.3-2.5-0.4-3.6c-0.2-0.2-0.3-0.5-0.5-0.7c-0.7-0.7-1.6-1.1-2.5-1.2l-13.3-1.2c-1.2-0.1-2.4,0.3-3.2,1.2
			l-36.8,36.8l-17.8,0c-2.3,0-4.1,1.8-4.1,4.1c0,2.3,1.8,4.1,4.1,4.1l9.7,0l-17.4,17.4l-47.8,0c-4.3,0-8.4,1.7-11.4,4.7
			c-3.1,3.1-4.7,7.1-4.7,11.4C-383.2,187.5-381.5,191.5-378.4,194.6L-378.4,194.6z M-246.4,256.7l-5.8,0l-57.4-57.4l43.4,0
			L-246.4,256.7z M-216.7,217l-17.7-17.7l5,0c2.1,0,4.2-0.2,6.3-0.7L-216.7,217z M-216.4,149l-6.5,18.6c-2.1-0.4-4.2-0.7-6.4-0.7
			l-5,0L-216.4,149z M-252.4,111.8l6.1,0.5l-19.2,54.7l-42.1,0L-252.4,111.8z M-367,175.1h122.8l14.8,0c5.1,0,10.2,1.7,14.3,4.8
			c0.1,0.1,0.3,0.2,0.4,0.4c0.8,0.8,1.2,1.9,1.2,3.1c-0.1,1.2-0.6,2.2-1.6,2.9c-4.1,3.1-9.1,4.8-14.3,4.8l-137.7,0
			c-2.1,0-4.2-0.8-5.7-2.4c-1.5-1.5-2.3-3.5-2.3-5.7c0-2.1,0.8-4.2,2.3-5.7C-371.2,176-369.1,175.1-367,175.1L-367,175.1z
			 M-367,175.1"/>
		<path class="st1" d="M-155.2,88.3 M-16.5,179.6c0,0-11.9,34.7-41.5,14.7s-37.7-72.8-46.9-79.2c-9.3-6.4-35.3-15.8-35.1-34.6
			s35.8-15.1,33.2-25.6s54.6,25.1,63,39C-43.9,93.9-15.2,126-16.5,179.6z M-52.1,279.7c0,0-49,60-129.9,43.3
			c-51.7-10.7,38-58.2,62.3-43.6S-44.4,233.2-52.1,279.7z M-166.9,45.6c0,0,17.8,15.5,0.4,24.8s-23.8-1.4-36.6,7.9
			c-12.8,9.3-25.6,5.9-29.6-0.7S-219.2,39.8-166.9,45.6z"/>
		<path class="st2" d="M-249.4,290.3c24.9,21.8,57.5,35,93.2,35c78.2,0,141.5-63.4,141.5-141.5c0-78.2-63.4-141.5-141.5-141.5
			c-36.3,0-69.3,13.6-94.4,36.1"/>
	</g>
	<g>
		<path class="st0" d="M183.3,203.6c3.1,3.1,7.1,4.7,11.4,4.7l45.8,0l19.1,19.1l-9.3,0c-2.3,0-4.1,1.8-4.1,4.1
			c0,2.3,1.8,4.1,4.1,4.1l17.4,0l37.1,37.1c0.8,0.8,1.8,1.2,2.9,1.2l13.3,0c1.3,0,2.6-0.6,3.3-1.7c0.8-1.1,1-2.5,0.5-3.7L304,208.3
			l11.8,0l25.7,25.7c0.8,0.8,1.8,1.2,2.9,1.2l6.7,0c1.3,0,2.6-0.6,3.3-1.7c0.8-1.1,1-2.4,0.5-3.7l-8.6-24.8c1.8-0.9,3.6-1.9,5.2-3.2
			c2.8-2.1,4.5-5.4,4.7-8.9c0.2-3.5-1-6.9-3.5-9.4c-0.4-0.4-0.8-0.7-1.2-1.1c-1.6-1.2-3.3-2.3-5.1-3.2l8.5-24.2
			c0.4-1.2,0.3-2.5-0.4-3.6c-0.2-0.2-0.3-0.5-0.5-0.7c-0.7-0.7-1.6-1.1-2.5-1.2l-6.7-0.6c-1.2-0.1-2.4,0.3-3.2,1.2L315.8,176l-11,0
			l20-56.9c0.4-1.2,0.3-2.5-0.4-3.6c-0.2-0.2-0.3-0.5-0.5-0.7c-0.7-0.7-1.6-1.1-2.5-1.2l-13.3-1.2c-1.2-0.1-2.4,0.3-3.2,1.2
			l-36.8,36.8l-17.8,0c-2.3,0-4.1,1.8-4.1,4.1c0,2.3,1.8,4.1,4.1,4.1l9.7,0L242.5,176l-47.8,0c-4.3,0-8.4,1.7-11.4,4.7
			c-3.1,3.1-4.7,7.1-4.7,11.4C178.5,196.5,180.2,200.5,183.3,203.6L183.3,203.6z M315.3,265.7l-5.8,0L252,208.3l43.4,0L315.3,265.7z
			 M345,226l-17.7-17.7l5,0c2.1,0,4.2-0.2,6.3-0.7L345,226z M345.3,158l-6.5,18.6c-2.1-0.4-4.2-0.7-6.4-0.7l-5,0L345.3,158z
			 M309.3,120.8l6.1,0.5L296.2,176l-42.1,0L309.3,120.8z M194.7,184.1h122.8l14.8,0c5.1,0,10.2,1.7,14.3,4.8
			c0.1,0.1,0.3,0.2,0.4,0.4c0.8,0.8,1.2,1.9,1.2,3.1c-0.1,1.2-0.6,2.2-1.6,2.9c-4.1,3.1-9.1,4.8-14.3,4.8l-137.7,0
			c-2.1,0-4.2-0.8-5.7-2.4c-1.5-1.5-2.3-3.5-2.3-5.7c0-2.1,0.8-4.2,2.3-5.7C190.6,185,192.6,184.1,194.7,184.1L194.7,184.1z
			 M194.7,184.1"/>
		<path class="st1" d="M190.9,97.3 M79.5,102.9c8.4-13.9,65.6-49.5,63-39s32.9,6.8,33.2,25.6s-25.8,28.2-35.1,34.6
			c-9.3,6.4-17.3,59.1-46.9,79.2s-41.5-14.7-41.5-14.7C50.8,135,79.5,102.9,79.5,102.9z M155.4,288.4
			c24.3-14.6,113.9,32.9,62.3,43.6c-81,16.7-129.9-43.3-129.9-43.3C80,242.2,131.2,303,155.4,288.4z M268.3,86.6
			c-4.1,6.6-16.9,10-29.6,0.7s-19.2,1.4-36.6-7.9s0.4-24.8,0.4-24.8C254.8,48.8,272.4,80,268.3,86.6z"/>
		<path class="st2" d="M285,299.3c-24.9,21.8-57.5,35-93.2,35c-78.2,0-141.5-63.4-141.5-141.5c0-78.2,63.4-141.5,141.5-141.5
			c36.3,0,69.3,13.6,94.4,36.1"/>
	</g>
</g>
</svg>
