<svg xmlns="http://www.w3.org/2000/svg" width="48" height="48" viewBox="0 0 48 48">
    <path fill="#EFC23B" fill-rule="evenodd" d="M4.355.582l.068.358h25.405l.062-.35a4.19 4.19 0 0 0 .062-.47V0H4.286v.112c0 .062.031.273.069.47zm.686 4.229c.05.29.14.849.203 1.244.063.396.147.918.188 1.162.04.243.124.773.185 1.179.127.836.114.806.337.758.436-.095.96-.642 1.181-1.234.187-.5.338-.564.338-.144 0 .703-.732 1.584-1.468 1.765-.168.041-.18.097-.118.543l.036.257h22.4l.036-.263.046-.34c.005-.051-.102-.112-.299-.17-.87-.26-1.597-1.112-1.555-1.823l.018-.29.153.12c.085.066.154.17.154.232 0 .483.625 1.138 1.307 1.37l.311.106.03-.176c.018-.097.055-.338.084-.536.03-.197.092-.595.14-.884.048-.29.139-.862.202-1.272.064-.41.15-.958.192-1.217a430.074 430.074 0 0 0 .568-3.608l.033-.207H17.126c-6.939 0-12.616.006-12.616.015 0 .075.4 2.652.53 3.413zm2.805-2.134c-.016.094-.058.382-.095.64-.091.644-.179.818-.244.485-.252-1.288-.15-1.807.274-1.388.063.062.084.148.065.263zm4.438 1.25c-.127 0-.283-1.386-.17-1.52a.217.217 0 0 1 .337 0c.116.138-.036 1.52-.167 1.52zm4.922-1.07c-.034.177-.08.482-.102.678-.047.407-.157.505-.209.187a16.962 16.962 0 0 0-.084-.46c-.114-.575-.12-.758-.026-.85.12-.119.267-.113.385.016.084.092.089.146.036.429zm4.547 1.053c-.145.047-.331-1.273-.207-1.466.092-.146.28-.147.372-.002.075.118-.074 1.439-.165 1.468zm4.912-1.027c-.037.224-.084.55-.104.725-.045.4-.167.432-.215.056a6.337 6.337 0 0 0-.088-.495c-.15-.659.022-1.02.368-.77.099.072.102.105.039.484zm-19.407.485c.06.2.122.405.139.454a.096.096 0 0 1-.06.123c-.086.033-.758-.876-.758-1.024 0-.293.34-.358.48-.092.05.096.14.339.2.54zm1.29-.262c-.025.01-.168.211-.318.447-.281.442-.295.455-.4.386-.075-.049.221-1.039.356-1.188.102-.112.243-.125.338-.03.075.074.092.356.023.385zm3.399.872c-.03-.001-.478-.68-.608-.92-.15-.278.129-.537.347-.321.244.24.456 1.251.26 1.241zm.695-.005c-.119.141-.17-.11-.079-.379.057-.167.131-.408.165-.536.093-.358.318-.511.493-.337.133.131-.146.734-.58 1.252zm4.104-.258c.092.348-.065.31-.345-.081-.416-.585-.458-.677-.384-.838.078-.17.315-.194.398-.04.064.118.255.67.331.96zm1.038-.414c-.141.207-.292.445-.336.529-.086.162-.119.176-.234.104-.053-.033-.058-.082-.019-.179.03-.073.11-.315.18-.538.176-.573.38-.724.575-.428.087.13.08.15-.166.512zm3.506-.225c.03.118.079.264.106.325.129.28.16.517.07.55-.047.018-.09.026-.094.018a64.254 64.254 0 0 0-.328-.487c-.175-.259-.319-.522-.319-.583 0-.239.247-.322.414-.14.052.057.12.2.15.317zm.777.903c-.191.007.024-1.008.265-1.246.124-.123.312-.075.372.094.046.131-.515 1.148-.637 1.152zm4.194-.119c0 .278-.617-.405-.796-.881-.078-.208.254-.426.39-.256.059.074.406 1.046.406 1.137zm1.23-.974c0 .048-.67 1.096-.7 1.096-.17 0-.172-.078-.018-.542a5.63 5.63 0 0 0 .16-.532c0-.204.293-.308.456-.162.056.05.102.113.102.14zM6.844 3.76c.39.539.322.638-.156.234-.17-.144-.416-.349-.545-.454-.239-.194-.296-.362-.168-.488.133-.133.312-.074.474.156l.395.552zm1.915.004c-.169.134-.383.312-.475.396-.288.262-.234.029.117-.499.484-.728.568-.792.774-.589.171.17.105.28-.416.692zm2.74.32c-.107-.094-.34-.284-.515-.42-.35-.274-.418-.393-.323-.57.134-.247.327-.125.737.467.477.687.515.886.101.523zm1.818-.205a5.66 5.66 0 0 0-.307.253c-.323.29-.296.12.068-.445.447-.69.555-.786.748-.66.229.15.073.41-.51.852zm3-.001c.251.319.205.498-.065.253-.077-.07-.322-.271-.545-.449-.41-.325-.492-.479-.338-.63.155-.154.315-.074.555.279.129.19.306.436.393.547zm1.836-.119c-.169.137-.383.317-.475.401-.263.239-.246.044.035-.39.51-.787.627-.885.841-.693.18.16.12.262-.4.682zm3.04.446c-.063.062-1.139-.815-1.139-.928 0-.299.301-.386.483-.14.423.571.7 1.023.655 1.068zm1.48-.257c-.557.46-.586.398-.134-.29.45-.685.57-.783.747-.606.186.183.104.304-.613.896zm3.241.26c-.014.087-.05.071-.246-.104a14.44 14.44 0 0 0-.543-.455c-.347-.276-.41-.384-.319-.551.06-.112.256-.15.366-.07.134.095.758 1.087.742 1.18zm1.927-.635c-.146.115-.291.235-.322.267-.134.142-.539.428-.566.4-.075-.073.729-1.255.854-1.255a.51.51 0 0 1 .191.057c.193.102.133.303-.157.531zM7.628 5.17l.158-.208c.3-.396 1.492-1.477 1.63-1.478.1 0 .091.035-.116.439-.289.56-.416.966-.54 1.718-.113.674-.233 1.002-.515 1.396-.136.19-.164.19-.39-.014-.229-.207-.305-.207-.558-.001l-.202.165-.141-.14c-.227-.224-.441-.733-.5-1.185a5.894 5.894 0 0 0-.522-1.819c-.4-.836-.267-.784.9.353l.796.774zm9.234-.11c.12.157.128.16.182.054.083-.159 1.454-1.474 1.661-1.592.219-.125.22-.068.008.348-.333.652-.476 1.127-.61 2.023-.131.884-.553 1.442-.857 1.134-.21-.213-.3-.213-.561 0l-.208.169-.148-.156c-.24-.252-.41-.706-.53-1.42-.129-.766-.254-1.167-.528-1.692-.302-.577-.232-.61.306-.146.331.287 1.151 1.101 1.285 1.277zm10.711.863c-.034.33-.263.856-.488 1.124l-.137.163-.216-.176c-.266-.217-.292-.218-.556-.01l-.213.167-.134-.124c-.207-.192-.455-.762-.515-1.184-.13-.9-.306-1.481-.637-2.095-.182-.337-.117-.377.212-.13.3.226 1.457 1.37 1.501 1.485.024.063.061.044.157-.083.2-.264.937-.978 1.364-1.322.446-.36.515-.323.264.14-.31.572-.524 1.297-.602 2.045zM12.19 5.086l.093.137.096-.137c.273-.388 1.586-1.602 1.732-1.602.083 0 .065.05-.251.719-.2.42-.403 1.15-.403 1.442 0 .273-.2.905-.366 1.152-.287.43-.266.42-.533.23-.265-.19-.384-.185-.604.031-.18.177-.19.173-.42-.17-.232-.344-.423-.896-.424-1.223-.001-.312-.2-1.033-.404-1.462-.405-.857-.39-.9.154-.432.441.38 1.213 1.144 1.33 1.315zm9.266-.208l.268.315.193-.232c.403-.484 1.504-1.477 1.637-1.477.09 0 .065.076-.187.58a4.787 4.787 0 0 0-.468 1.597c-.062.549-.281 1.112-.535 1.374l-.146.15-.225-.164c-.281-.204-.321-.204-.549.002-.24.217-.238.217-.475-.149-.234-.362-.368-.785-.46-1.455-.073-.54-.153-.79-.458-1.425-.306-.638-.289-.654.24-.222.525.43.867.754 1.165 1.106zM7.778 4.665l-.198.214-.191-.214c-.357-.4.02-.84.44-.514.196.153.186.259-.051.514zm4.699.002l-.192.215-.196-.215c-.264-.29-.16-.63.193-.63.064 0 .179.06.254.136.179.176.171.235-.06.494zm4.694-.007l-.196.209-.193-.209c-.262-.282-.154-.623.197-.623.064 0 .179.06.254.136.18.177.172.238-.062.487zm4.746.008l-.204.217-.185-.217c-.363-.423.04-.87.447-.496.193.177.186.236-.058.496zm4.964-.303l-.212.268-.212.269-.207-.225c-.39-.424.056-.88.465-.476l.166.164zM7.389 7.342c-.255.163-.266.039-.017-.202.213-.206.213-.206.212-.048 0 .081-.068.168-.195.25zm.255-.205l-.003-.135.168.16c.092.087.168.205.168.263 0 .169-.329-.115-.333-.288zm4.37.057c.151-.146.188-.161.204-.084.01.051-.048.155-.13.23-.231.212-.3.074-.074-.146zm.63.271c-.091 0-.362-.256-.362-.342 0-.136.05-.126.235.049.139.132.209.293.126.293zm4.07-.273c.151-.154.184-.168.2-.086.011.053-.044.156-.123.228-.284.261-.353.136-.078-.142zm.32-.079c0-.098.026-.088.197.076.129.124.177.206.14.242-.075.075-.336-.172-.336-.318zm4.432.079c.144-.14.186-.158.2-.087.011.05-.047.151-.128.225-.286.262-.352.134-.072-.138zm.627.273c-.09 0-.361-.256-.361-.342 0-.136.05-.126.234.049.14.132.21.293.127.293zm4.093-.286c.149-.154.16-.157.177-.05.01.071-.041.165-.14.249-.222.19-.252.024-.037-.199zm.47.178c-.187-.131-.255-.387-.073-.274a.96.96 0 0 1 .2.198c.141.186.08.222-.127.076zm-14.797.463a.565.565 0 0 1 .202-.292l.165-.121v.279c0 .153-.023.322-.052.375a8.97 8.97 0 0 0-.17.354c-.907 1.974-4.178 1.45-4.351-.697l-.027-.329.173.135c.1.078.2.225.235.347.543 1.873 3.423 1.835 3.825-.051zm3.322 1.38c.677-.195 1.35-.891 1.35-1.396 0-.06.076-.163.168-.228l.168-.118v.306c0 .966-1.107 1.913-2.236 1.913-1.138 0-2.205-.915-2.283-1.957l-.025-.326.145.105c.08.057.172.18.206.27.442 1.189 1.416 1.744 2.507 1.43zm2.27-1.256c.133.691 1.057 1.345 1.903 1.346.876.001 1.93-.8 1.93-1.466 0-.081.064-.174.168-.248l.168-.118v.28c0 .993-1.1 1.938-2.258 1.939-1.169.002-2.238-.905-2.317-1.963l-.024-.331.132.11c.072.06.162.148.199.194a.715.715 0 0 1 .1.257zm8.526-.011a.952.952 0 0 1 .234-.387l.174-.163-.022.359c-.099 1.569-2.23 2.486-3.596 1.547-.548-.376-.978-1.076-.979-1.591v-.293l.136.1c.075.054.191.247.26.43.66 1.774 3.329 1.772 3.793-.002zM6.055 11.102l.034.124 11.05-.014 11.051-.014.018-.18.017-.18H17.122c-8.845 0-11.102.015-11.102.07 0 .038.016.125.035.194zm.382 2.336c.042.258.128.793.19 1.189.155.974.32 1.993.427 2.626.05.29.137.837.196 1.217.058.38.146.928.195 1.217.049.289.14.836.2 1.216l.223 1.383.197 1.216c.048.29.133.824.191 1.19.058.364.146.9.196 1.188.05.29.138.837.197 1.217.058.38.146.927.195 1.216l.2 1.217c.12.746.29 1.791.413 2.544.042.258.128.793.19 1.189.201 1.263.487 2.582.742 3.428.167.554.465 1.423.55 1.604.029.06.117.267.196.459.875 2.114 2.32 4.072 3.859 5.23.184.139.36.272.391.297.678.532 2.316 1.3 3.284 1.539 1.288.318 1.267.316 4.425.34 2.803.022 3.289 0 2.705-.126-.84-.18-1.798-1.151-2.112-2.143-.712-2.248 1.946-3.571 5.086-2.533 1.633.54 2.778.05 2.76-1.183-.017-1.159-1.015-2.258-2.791-3.073-.806-.37-1.105-.514-1.139-.548a4.089 4.089 0 0 0-.267-.19c-1.037-.695-1.78-2.097-2.053-3.876-.149-.97-.047-3.521.163-4.064.018-.046.072-.344.12-.664l.163-1.05.194-1.217c.066-.41.17-1.07.23-1.465.062-.396.147-.93.19-1.19l.195-1.216.197-1.244c.124-.778.304-1.925.422-2.682.059-.38.147-.928.195-1.217.049-.289.137-.836.196-1.216s.145-.928.192-1.217c.046-.289.134-.849.194-1.244.104-.688.15-.956.205-1.23l.025-.125H17.148c-6.06 0-11.016.019-11.015.042.001.044.179 1.182.304 1.949zm11.515 5.013a1.029 1.029 0 0 0-.078.217c0 .024-.073.244-.161.49-.089.245-.242.672-.34.95l-.178.503-.597.033c-.329.017-.654.049-.723.07l-.126.036v-1.462c0-1.707.037-1.908.383-2.089.27-.141 1.343-.157 1.677-.025.407.16.455.584.143 1.277zm2.629-.14l.073.242-.834 1.05c-.46.579-.865 1.093-.903 1.143-.064.086-.1.085-.514-.013a3.963 3.963 0 0 0-.684-.106h-.238l.09-.208c.049-.114.251-.643.45-1.175.58-1.561.57-1.54.797-1.659.287-.15.705-.141 1.076.022.374.165.592.39.687.703zm-5.112.206c0 .42.017 1.104.037 1.519.034.71.03.756-.07.789-.362.119-.973.42-.973.479 0 .17-.174-.12-.722-1.204-.76-1.506-.785-1.63-.387-1.984.537-.477 1.718-.758 2.003-.475.102.1.112.184.112.876zm5.955 2.47c-.276.145-.528.281-.559.303-.08.057-.922.498-.952.498-.013 0-.074-.097-.135-.215-.088-.171-.304-.381-.611-.595-.011-.008.24-.345.559-.75 1.305-1.657 1.596-1.82 2.197-1.23.839.823.703 1.363-.499 1.99zm-7.695-.25l.397.8-.243.25a6.47 6.47 0 0 0-.436.507l-.194.258-.223-.203a26.172 26.172 0 0 0-.552-.478c-1.29-1.087-1.314-1.113-1.28-1.319.092-.556.189-.787.487-1.155.132-.164.658-.337 1.115-.367.07-.005.159.12.315.45.12.25.395.816.614 1.256zm-1.782 1.087c.076.066.366.312.643.546.276.234.495.453.485.486-.01.034-.065.162-.122.287-.057.124-.137.33-.177.458-.094.298.037.334-1.5-.417-1.643-.802-1.72-.885-1.453-1.574.216-.559.583-.8.987-.648.134.05.61.412 1.137.862zm5.214-.126a3.37 3.37 0 0 0 .235 1.432c.125.295.112.476-.04.532-.069.026-.264.102-.433.17-.17.068-.345.134-.391.148-.161.048-.978-.814-1.176-1.242a98.446 98.446 0 0 0-.173-.37c-.179-.38-.038-.859.304-1.031.344-.174 1.511-.282 1.642-.153.039.039.05.225.032.514zm2.158.788c-.141.247-.182.392-.203.718l-.027.409h-.596c-.68 0-.668.008-.874-.608-.136-.41-.154-1.688-.025-1.775.13-.087.68-.013 1.08.146.786.31.945.584.645 1.11zm-3.364 1.449l.31.269-.188.25a5.641 5.641 0 0 0-.248.35c-.065.11-.61.01-.973-.177a.678.678 0 0 0-.198-.074c-.075 0-.695-.381-.9-.553-.6-.505-.531-.994.246-1.759.379-.372.512-.33.832.264.3.558.694 1.061 1.119 1.43zm15.797-.948c-1.486.693-3.606 2.866-4.468 4.58-.061.122-.201.389-.311.594-.211.394-.606 1.32-.702 1.646-.252.853-.312 1.098-.406 1.648-.284 1.657-.036 2.972.72 3.827.558.63 1.011.893 2.975 1.723.25.106.442.202.867.433 1.559.848 2.25 2.673 1.62 4.273-.102.257-.202.227 1.12.337 1.512.126 2.6.313 3.01.517.256.127.256.215.01-2.28-.046-.455-.133-1.364-.194-2.018l-.221-2.35c-.06-.639-.137-1.472-.17-1.852-.033-.38-.073-.794-.09-.92l-.03-.227-.556-.027c-.443-.02-.582-.048-.674-.13l-.117-.105.208-.173.208-.172-.44-.04c-.92-.081-1.261-.461-.716-.797l.263-.162-.277-.037c-.564-.077-.966-.465-.968-.935-.001-.203.006-.212.145-.178.169.043.637-.016.637-.08 0-.023-.097-.08-.216-.128-.276-.109-.54-.37-.623-.616-.081-.244-.055-.283.304-.445.479-.216.55-.469.13-.469-.87 0-.88-1.113-.016-2.035.365-.39.391-.529.115-.619-.412-.134-.942-.912-.949-1.392-.013-.935 2.125-1.5 2.536-.67.108.218.508.277.508.075 0-.145.228-.402.47-.531.25-.133.25-.153-.006-.302-.494-.288-1.801-.426-2.589-.271-.675.132-.81.17-1.107.308zm-19.842.878l.719.329-.034.242a5.135 5.135 0 0 0-.033.573v.33l-.182-.033c-.1-.018-.484-.083-.853-.144-1.64-.27-2.077-.359-2.18-.442-.274-.225-.19-1.146.137-1.492.214-.227.363-.217 1.098.07.335.131.933.386 1.328.567zm22.964.453c-.192.177-.246.16-.475-.156-.459-.632-1.204-.66-1.871-.069l-.248.22.173.365c.587 1.24 1.68 1.467 2.376.494.839-1.174 1.575-1.416 2.282-.75.109.102.252.186.318.186.104 0 .776.452.938.63.178.196.252.217.252.07 0-.191-.774-.97-1.12-1.127a2.67 2.67 0 0 1-.532-.359c-.672-.59-.84-.593-1.493-.03-.256.221-.526.458-.6.526zm-19.628.701l.475.122.001.494c0 .272.02.548.044.613.052.144-.06.164-1.303.239-1.107.066-1.267-.067-1.402-1.166-.13-1.052.045-1.605.372-1.181.257.332.903.646 1.813.879zm3.914-.783c0 .796.747 2.078 2.982 5.114 1.577 2.142 2.777 4.097 2.777 4.523 0 .02.036.115.08.21.203.44.705 1.76.95 2.496.356 1.075.39 1.191.674 2.269.329 1.25.4 1.47.597 1.819.051.092.043.1-.073.069-.887-.24-2.21.027-2.802.567l-.237.216.019-.736c.031-1.282-.213-3.181-.57-4.443-.361-1.27-1.313-3.021-2.403-4.422a18.767 18.767 0 0 0-.848-1.034 37.376 37.376 0 0 0-1.711-1.878 30.537 30.537 0 0 1-.717-.776c-.16-.182-.46-.515-.665-.74-.64-.698-.832-.948-.9-1.174-.348-1.148.19-1.98 1.477-2.277.17-.04.924-.042 1.16-.004.188.031.21.052.21.201zm16.006 2.513c.307.304.87.315 1.098.021.612-.79 1.162-1.107 1.921-1.11.257-.001.261-.042.028-.26-.31-.292-.625-.416-1-.395-.285.016-.328.005-.328-.081 0-.35-.702-.506-1.118-.248-.732.452-1.068 1.61-.601 2.073zm1.607-1.45c0 .047.082.06.277.041.317-.03.674.023.674.1 0 .03-.054.053-.12.053-.164 0-.7.255-.957.455-.13.1-.21.135-.21.089 0-.04-.094-.124-.21-.184-.316-.168-.306-.526.015-.526.117 0 .124.02.097.253l-.029.253.19-.018c.18-.017.19-.03.206-.25.032-.427-.237-.606-.686-.46-.546.179-.484.969.082 1.048l.228.031-.21.213c-.358.364-.74.252-.787-.23-.087-.898.86-1.665 1.329-1.076.061.077.111.17.111.208zm-24.77.278c.585.048.596.053.637.31.04.249.19.565.433.916.088.127.16.241.16.254 0 .046-3.259.087-3.375.042-.296-.115-.372-.257-.372-.697 0-.955.266-1.097 1.706-.91.215.028.58.067.81.085zm21.457 2.47c.41-.093.187.573-.383 1.139-.17.17-.22.253-.177.296.076.075.827.16 1.044.118.353-.07-.011.576-.51.903-.364.24-.335.309.146.343.22.016.427-.008.62-.071.158-.052.303-.08.321-.062.075.074-.117.497-.357.788-.35.426-.093.512.788.263.492-.138.51-.099.19.435-.196.33-.184.347.232.335a1.447 1.447 0 0 0 1.128-.613c.092-.136.09-.14-.224-.399-.926-.765-1.455-1.638-1.778-2.932-.108-.435-.15-2.14-.063-2.53.055-.243-.007-.235-.616.072-1.469.743-1.749 2.23-.36 1.915zm3.397-1.532a7.84 7.84 0 0 1-.67.541c-.748.522-1.016.992-.727 1.277.491.487 1.537-.458 1.537-1.39 0-.453.489-.743 1.594-.944.258-.047.24-.05-.252-.053-.292 0-.569.011-.615.027-.298.1-.574.273-.867.542zm1.532-.082c.796 0 1.627.626 1.627 1.226 0 .34.126.405.197.101a5.21 5.21 0 0 1 .164-.548c.05-.134.085-.345.075-.47l-.016-.226-.392-.031a1.849 1.849 0 0 1-.626-.152c-.263-.135-1.049-.164-1.4-.052-.32.102-.197.152.371.152zm-22 .87c.302.333.382.284-.873.539-1.154.235-1.007.236-1.28-.008-.668-.596-.526-.974.402-1.075a21.886 21.886 0 0 0 1.139-.152c.03-.003.123.09.206.205.082.115.265.336.405.49zm20.613.79c-.1.166-.275.386-.388.486l-.204.183.643-.025c.552-.021 1.383-.174 1.572-.289.112-.069.902-.231 1-.206.143.037.15-.13.019-.513-.267-.782-.773-1.094-1.416-.872-.416.144-.805.536-1.226 1.235zm-23.096.028c.186.058.123.12-.212.208-.177.047-.498.14-.713.206-.656.203-2.107.465-2.303.417-.302-.075-.689-.616-.689-.965 0-.305.146-.356 1.405-.496.627-.07 1.177-.135 1.224-.144.418-.082.716-.027.775.14.08.225.375.59.513.634zm3.538.841l-1.1.286c-.802.208-.84.212-1.076.133-.482-.162-.773-.83-.452-1.038.101-.066 1.775-.453 2.023-.468.031-.002.24.206.466.462.484.551.481.536.139.625zm20.112.017c-2.03.018-2.668 1.347-1.104 2.298.245.149.265.177.265.384 0 .293.121.451.4.526.585.155.987-.146 1.085-.812.048-.327.158-.55.491-.997.158-.212.229-.35.188-.366-.122-.045-.252.041-.448.295-.605.785-1.897.84-2.28.096-.354-.685.212-1.058 1.617-1.063.989-.004.983-.006 1.074.328.073.267.244.158.602-.383.59-.892.586-1.09-.017-.762-.571.311-1.14.45-1.873.456zm-22.702.594l.196.047-.336.088c-.184.048-.65.18-1.034.292-.777.226-1.388.398-1.665.468-.793.2-1.338-.95-.559-1.18.777-.23 2.344-.606 2.65-.637.035-.003.091.1.124.231.078.306.371.63.624.691zm3.938.383l.15.177-.297.083c-.37.104-1.516.412-1.778.478-.607.154-1.006-.082-1.006-.595 0-.394.051-.432.894-.653.416-.11.83-.22.923-.246.313-.086.374-.062.671.26.16.176.36.399.443.496zm18.165-.136c.395-.002.78.107 1.023.29l.183.139.116-.146c.313-.394-.622-.682-1.422-.438-.316.097-.277.158.1.155zm-21.11 1.09c.16.005.052.113-.168.169-.13.033-.3.082-.377.11a7.056 7.056 0 0 1-.448.131c-.169.044-.622.173-1.006.287-1.106.326-1.304.306-1.545-.155-.09-.174-.08-.559.019-.656.053-.053 1.526-.494 2.197-.658.23-.056.495-.125.587-.153.187-.056.25-.008.25.197.003.292.293.723.49.729zm2.977.803l-.752.22c-.723.212-1.149.009-1.149-.548 0-.415-.018-.406 1.729-.862a3.61 3.61 0 0 0 .438-.131c.025-.025.797.762.87.887.055.095.13.066-1.136.434zm-1.91.48c.178.07-.08.16-2.376.817-.685.196-1.011.107-1.193-.326-.169-.403.004-.648.553-.785.203-.05.495-.13.649-.176 1.715-.515 1.807-.519 1.92-.074.067.263.229.46.447.545zm4.135.457l-.4.121c-.22.067-.588.175-.818.241a7.01 7.01 0 0 0-.531.169c-.587.256-1.014.207-1.245-.141-.291-.441-.124-.776.462-.926.184-.047.511-.139.727-.204 1.031-.312.849-.36 1.511.402l.294.338zm-3.103.85c.19.05.013.117-1.33.502l-.895.26c-.84.245-1.028.232-1.258-.086-.291-.405-.157-.813.307-.93.237-.06 1.183-.332 2.293-.661.185-.055.42.164.42.393 0 .172.265.471.463.523zm3.66.577l-.893.26c-.33.096-.669.21-.755.255-.479.247-1.078-.105-1.078-.634 0-.214.128-.446.246-.446.076 0 .487-.12 1.432-.418.323-.101.607-.186.63-.188.025-.001.195.227.378.507.402.614.398.56.04.664zm-2.727.717c.15.072.127.083-.662.314-.45.131-1.058.313-1.35.404-1.017.316-1.417.247-1.561-.269-.12-.431.01-.6.583-.75.75-.198 2.572-.731 2.572-.753v.348c0 .387.098.553.418.706zm3.647.352l.091.225-.624.181c-.344.1-.763.232-.932.295-.714.266-1.185.154-1.343-.319-.178-.534-.052-.608 2.07-1.21.292-.084.276-.094.485.3.09.167.203.405.253.528zm-2.905.969c.267.112.27.111-1.775.692-.277.08-.636.182-.799.23-.53.154-.892-.064-.95-.572-.034-.306.08-.492.333-.54.173-.034.475-.119 1.304-.366.184-.055.524-.154.755-.22.23-.066.47-.141.53-.168.202-.087.225-.06.225.262 0 .359.118.573.377.682zm3.477.585c.033.108-.002.13-.371.238-.225.065-.634.194-.911.286-.856.285-1.13.258-1.372-.134-.183-.297-.097-.813.135-.813.078 0 .776-.202.957-.276.406-.167 1.179-.365 1.216-.31.022.033.101.247.175.475.074.228.151.468.17.534zm-2.778.859l.183.067-.518.159c-.285.087-.681.203-.881.258-.2.054-.628.177-.95.272-.895.263-1.146.218-1.369-.245-.204-.425-.048-.664.524-.807.203-.05.507-.133.677-.183.359-.108.896-.26 1.37-.39.184-.05.373-.113.419-.139.07-.038.088.012.112.296.018.22.068.396.14.493a.757.757 0 0 0 .293.219zm3.09.775c0 .022-.108.068-.238.102-.365.095-.763.215-1.133.342-.603.207-.963.112-1.175-.309-.133-.262-.066-.595.135-.673.177-.07 2.036-.616 2.141-.63.02-.002.053.042.071.098.033.102.198.995.198 1.07zm-2.68.67c.223.084.205.133-.074.204a2.97 2.97 0 0 0-.35.108c-.213.093-2.349.667-2.48.666-.566-.003-.877-1.022-.348-1.142.156-.035.383-.1 1.123-.319 1.9-.562 1.77-.543 1.743-.261-.027.288.167.663.386.745zm2.823.462l.038.452-.245.063c-.415.107-.967.293-1.044.351-.154.117-.668.07-.826-.077-.514-.475-.395-.897.312-1.1.23-.067.683-.204 1.006-.306.323-.1.603-.186.623-.19.02-.002.05.076.067.175.018.099.049.383.07.632zm-2.444 1.025l.188.115-.216.07c-.223.072-.854.258-1.586.468-.23.067-.53.157-.665.2-.63.204-.973.137-1.144-.22-.19-.394-.081-.724.267-.818.125-.034.38-.107.564-.163.184-.055.524-.154.755-.22a39.497 39.497 0 0 0 1.454-.432c.015-.004.019.107.008.247a.784.784 0 0 0 .375.753zm2.398 1.035c-.254.1-1.414.448-1.487.447-.673-.007-.931-1.022-.306-1.204l.717-.208c.277-.08.604-.18.727-.22.386-.128.4-.12.44.257.07.664.049.874-.09.928zm-2.171.545l.2.084-.252.07c-.138.038-.427.123-.642.187-.216.065-.518.153-.672.194-.811.222-1.076.299-1.22.355-.456.18-.925-.056-1.01-.509-.082-.427.03-.523.86-.744.354-.095.97-.27 1.37-.39.972-.29.923-.293.923.066 0 .35.132.555.443.687zm3.395 1.588c-.002 1.148.675 1.858 2.09 2.193l.53.126 7.703.018 7.702.018v-.127c0-.07-.057-.19-.126-.265a12.42 12.42 0 0 1-.347-.407c-.208-.252-.233-.266-.435-.24-.17.023-.246.002-.374-.104-.124-.104-.225-.134-.453-.134h-.294l.034.36.034.36h-.375c-.308 0-.402-.023-.525-.125a67.943 67.943 0 0 0-.255-.212c-.489-.403-1.427-.675-2.56-.742a8.498 8.498 0 0 1-1.285-.196c-.739-.175-1.043-.23-1.957-.356-.339-.046-.792-.11-1.007-.14-.215-.032-.806-.082-1.314-.11-1.368-.08-2.272-.164-2.712-.252-.864-.175-1.655-.05-1.737.276-.093.364.102.704.527.92l.243.124 3.168-.01c3.536-.013 4.668.05 5.137.281.48.237.403.246-2.403.28-1.453.018-3.259.063-4.012.1-2.87.143-3.97-.318-3.97-1.664 0-.918 1.07-1.312 2.516-.927.776.206 1.305.258 3.02.292 2.063.042 3.875.255 4.445.523.607.285.81.334 1.397.334.766 0 1.511.157 2.044.43l.595.305c.523.265.672-.032.272-.541-.669-.852-.135-1.019.685-.214.513.504.607.53.376.1-.098-.182-.125-.284-.086-.323.068-.067.001-.135.895.906 1.02 1.186 1.11 1.272 1.326 1.272.203 0 .272-.246.108-.381-.042-.035-.147-.218-.232-.408-.26-.574-.445-.749-.953-.896-.278-.08-.285-.088-.493-.526-.27-.57-.67-.781-1.014-.533-.095.069-.123.06-.257-.083-.237-.25-.664-.23-1.279.065l-.468.223-.87-.017c-.8-.015-.922-.032-1.479-.2-1.114-.335-1.247-.353-5.963-.783-.363-.033-.9-.13-1.23-.22-.5-.139-1.184-.267-1.873-.353-.093-.011-.344.015-.56.058-1.21.243-1.947.97-1.949 1.925zm-1.376-.69l-.002.196-.561.183c-.8.259-1.189.151-1.32-.364-.114-.45.007-.548 1.043-.845.23-.066.57-.164.755-.22.409-.12.381-.169.221.387-.074.257-.136.556-.136.664zm-1.76.722c.06.002-.042.047-.227.1-.184.053-.524.154-.754.223-1.024.306-1.906.553-2.013.563-.795.074-1.066-.965-.308-1.175.185-.052.65-.185 1.034-.296 1.38-.4 1.595-.46 1.635-.465.022-.003.025.068.007.157-.072.356.296.88.627.893zM3 47.39h41.997l-.016-.566-.016-.567-20.983-.014L3 46.23v1.161zM3 48h42l-.017-.18-.018-.18-20.983-.013L3 47.613V48z"/>
</svg>
