<svg xmlns="http://www.w3.org/2000/svg" width="80" height="80" viewBox="0 0 80 80">
    <g fill="none" fill-rule="evenodd">
        <path fill="#262C7A" d="M3.895 45.982c-.495.196-.458.644-.364.998 1.13 4.395 2.41 8.883 4.931 12.587 6.464 9.46 15.3 15.638 26.947 17.019 2.354.27 3.521 1.604 5.146 3.405-4.464.093-8.425-.56-12.3-1.735C8.218 72.172-3.756 51.319 1.064 30.94 6.36 8.567 28.72-3.843 49.242 1.065 68.426 5.655 81.755 24 79.812 43.63 78.14 60.547 66.418 74.495 50.437 78.666c-1.41.373-2.363.261-3.456-.877-4.474-4.693-9.088-9.265-13.646-13.874-3.895-3.938-4.52-8.724-1.746-13.548 1.924-3.359 4.772-5.915 7.462-8.621 7.482-7.511 14.992-15.004 22.473-22.524.598-.597 1.112-1.297 1.588-2.006 1.793-2.668 1.457-4.964-1.149-6.82C51.82 3.146 40.695 1.14 28.815 4.928 12.609 10.097 2.569 24.708 3.11 41.746c.019.578-.084 1.203.383 1.68-.168.895.094 1.725.402 2.556zm67.37-24.707c.599 3.517-.503 6.568-2.166 9.433-1.821 3.116-4.24 5.729-6.744 8.35-3.885 4.087-7.976 7.96-11.9 12.009-3.137 3.247-6.668 6.167-9.106 10.049-2.223 3.527-1.933 6.26.953 9.237 1.513 1.558 3.12 3.023 4.567 4.628.832.933 1.607 1.017 2.756.68 11.339-3.33 19.68-10.235 24.322-21.105 4.642-10.842 4.016-21.637-1.458-32.106-.242-.466-.27-1.222-1.223-1.175z"/>
        <path fill="#A43037" d="M3.894 45.985c-.308-.83-.57-1.66-.401-2.556 6.481 1.875 11.86 5.57 16.586 10.253 8.443 8.368 16.802 16.82 25.188 25.245.122.121.187.308.309.513-1.308.644-2.195.205-3.13-.727-4.977-4.964-9.955-9.927-15.054-14.76-4.016-3.806-9.152-5.877-13.906-8.508-3.885-2.146-7.322-4.646-9.031-8.947-.084-.215-.374-.345-.56-.513z"/>
    </g>
</svg>
