<svg xmlns="http://www.w3.org/2000/svg" width="80" height="80" viewBox="0 0 80 80">
    <g fill="none" fill-rule="evenodd">
        <path fill="#C81726" d="M70.565 64.46c-8.652-10.965-21.397-13.161-29.952-13.835-8.172-1.362-11.575-2.458-17.023-5.183 16.343 10.899 31.21 3.315 44.745 20.627l2.23-1.61z"/>
        <path fill="#159617" d="M78.72 66.875c-7.017-11.686-21.861-15.917-30.408-16.869-13.62 0-19.758-2.83-26.76-4.879 8.524 4.96 16.891 5.825 27.36 6.911 10.47 1.087 20.929 5.84 26.975 16.593l2.832-1.756z"/>
        <path fill="#063E83" d="M64.564 63.874c-6.08 6.012-14.44 9.726-23.663 9.726C22.332 73.6 7.257 58.544 7.257 40c0-.186.002-.37.005-.556.29 17.511 14.615 31.638 32.218 31.638 8.877 0 16.92-3.593 22.75-9.4.783.666 1.56 1.394 2.334 2.192zm7.139-24.973c0-17.761-14.44-32.18-32.223-32.18-2.601 0-5.13.307-7.553.89A33.666 33.666 0 0 1 40.9 6.4c18.568 0 33.643 15.056 33.643 33.6A33.4 33.4 0 0 1 71.156 54.7c3.038 2.357 6.021 5.398 8.844 9.363-5.456-6.813-16.367-13.626-27.279-13.626-17.7 0-28.821-2.13-35.726-8.533-6.928-6.425-9.612-17.127-10.714-19.39-2.2-4.52-4.984-5.025-6.281-5.677.765-.238 2.061-.507 3.25-1.002 2.073-.863 2.306-2.012 5.232-2.012 3.882 0 7.413 5.275 10.141 6.638 4.012 2.004 7.198.594 12.654.594 6.4 0 14.26.768 23.104 7.335 4.35 3.229 9.371 7.685 13.868 14.873-2.728-2.726-13.996-15.093-26.44-14.627-4.128.155-8.183 2.743-8.183 6.813 0 14.412 17.82 6.309 34.903 17.385A31.991 31.991 0 0 0 71.703 38.9z"/>
    </g>
</svg>
