<?xml version="1.0" encoding="utf-8"?>
<!-- Generator: Adobe Illustrator 22.1.0, SVG Export Plug-In . SVG Version: 6.00 Build 0)  -->
<svg version="1.1" id="Layer_1" xmlns="http://www.w3.org/2000/svg" xmlns:xlink="http://www.w3.org/1999/xlink" x="0px" y="0px"
	 viewBox="0 0 40 40" style="enable-background:new 0 0 40 40;" xml:space="preserve">
<style type="text/css">
	.st0{fill:#FFFFFF;}
</style>
<path class="st0" d="M0,10C0,4.5,4.5,0,10,0h20c5.5,0,10,4.5,10,10v20c0,5.5-4.5,10-10,10H10C4.5,40,0,35.5,0,30V10z M26,4.6
	c-4,0-8,0-12,0c-0.2,0-0.3,0-0.5,0c-1,0.1-2,0.3-2.9,0.7C9.8,5.6,9.1,6,8.5,6.5C7.4,7.3,6.6,8.3,6,9.4c-0.7,1.3-1,2.7-1.1,4.2
	c0,4.3,0,8.6,0,12.9c0,0.3,0,0.6,0.1,0.9c0.3,2.9,2,5.4,4.4,6.9c1.4,0.8,2.9,1.2,4.5,1.2c4.1,0,8.1,0,12.2,0c0.4,0,0.9,0,1.3-0.1
	c2.1-0.4,4.1-1.5,5.5-3.1c0.8-1,1.4-2.2,1.8-3.4c0.2-0.8,0.3-1.6,0.3-2.3c0-4.3,0-8.6,0-12.9c0-0.3,0-0.6-0.1-1
	c-0.3-2.4-1.5-4.7-3.5-6.2c-0.9-0.7-2-1.2-3.1-1.6C27.7,4.7,26.8,4.6,26,4.6z M14,7.9c4,0,8,0,12,0c0.3,0,0.6,0,1,0.1
	c0.9,0.2,1.8,0.5,2.6,1.1c0.7,0.5,1.2,1.2,1.6,1.9c0.4,0.8,0.7,1.7,0.7,2.7c0,4.3,0,8.5,0,12.8c0,0.3,0,0.6-0.1,0.9
	c-0.2,1.4-0.9,2.6-1.9,3.5c-0.7,0.6-1.4,1-2.3,1.2c-0.5,0.1-1,0.2-1.5,0.2c-4,0-8,0-12,0c-0.2,0-0.4,0-0.6,0c-1.6-0.2-3-1-4-2.3
	c-0.4-0.6-0.8-1.2-1-1.9c-0.1-0.5-0.2-1-0.2-1.6c0-4.3,0-8.5,0-12.8c0-0.2,0-0.4,0-0.6c0.1-1.2,0.6-2.3,1.4-3.2
	c0.6-0.7,1.4-1.3,2.2-1.6C12.5,8,13.3,7.9,14,7.9z M19.8,11.4L19.8,11.4c-0.2,0-0.3,0-0.5,0c-1.4,0.1-2.8,0.5-4,1.3
	c-0.7,0.5-1.4,1.1-2,1.8c-1.9,2.3-2.5,5.5-1.5,8.3c0.4,1.3,1.2,2.4,2.1,3.4c0.9,0.9,2.1,1.6,3.3,2c0.9,0.3,1.8,0.4,2.7,0.4
	c0.9,0,1.8-0.1,2.7-0.4c1.1-0.4,2.1-1,3-1.8c0.7-0.7,1.3-1.4,1.8-2.3c0.6-1,0.9-2.2,1-3.4c0-0.3,0-0.6,0-0.9c0-0.5,0-1.1-0.1-1.6
	c-0.1-0.4-0.2-0.8-0.3-1.2c-0.1-0.5-0.3-0.9-0.5-1.3s-0.5-0.9-0.8-1.3c-0.3-0.4-0.7-0.7-1-1.1c-0.4-0.3-0.8-0.6-1.2-0.8
	c-0.3-0.2-0.6-0.3-0.9-0.4c-0.3-0.1-0.6-0.2-0.9-0.3c-0.6-0.2-1.2-0.3-1.8-0.3C20.6,11.5,20.2,11.4,19.8,11.4L19.8,11.4z M19.8,15.2
	c0.1,0,0.1,0,0.2,0c0.3,0,0.6,0,0.9,0.1c0.2,0,0.3,0.1,0.5,0.1c0.5,0.1,0.9,0.3,1.3,0.5c0.2,0.1,0.3,0.2,0.4,0.3
	c0.3,0.2,0.5,0.4,0.7,0.7c0.1,0.2,0.2,0.3,0.3,0.5c0.1,0.2,0.2,0.3,0.2,0.5c0.1,0.3,0.2,0.7,0.3,1c0.1,0.5,0.1,1,0.1,1.5
	c-0.1,0.6-0.2,1.1-0.4,1.6c-0.3,0.6-0.6,1.1-1.1,1.5c-0.3,0.3-0.6,0.5-1,0.7c-0.7,0.4-1.5,0.6-2.3,0.6c-1.3,0-2.5-0.5-3.3-1.4
	c-0.5-0.5-0.9-1.2-1.2-1.9c-0.2-0.5-0.3-1-0.3-1.6c0-0.9,0.2-1.7,0.7-2.4c0.2-0.4,0.5-0.8,0.9-1.1c0.2-0.2,0.4-0.4,0.6-0.5
	C18.1,15.5,19,15.2,19.8,15.2L19.8,15.2z M30,11.9c0-1-0.8-1.9-1.8-1.9s-1.9,0.8-1.9,1.8v0.1c0,1,0.9,1.8,1.9,1.8
	C29.2,13.7,29.9,12.9,30,11.9z"/>
</svg>
