<?xml version="1.0" encoding="utf-8"?>
<!-- Generator: Adobe Illustrator 22.1.0, SVG Export Plug-In . SVG Version: 6.00 Build 0)  -->
<svg version="1.1" id="Layer_1" xmlns="http://www.w3.org/2000/svg" xmlns:xlink="http://www.w3.org/1999/xlink" x="0px" y="0px"
	 viewBox="0 0 40 40" style="enable-background:new 0 0 40 40;" xml:space="preserve">
<style type="text/css">
	.st0{fill:#FFFFFF;}
</style>
<path class="st0" d="M0,10C0,4.5,4.5,0,10,0h20c5.5,0,10,4.5,10,10v20c0,5.5-4.5,10-10,10H10C4.5,40,0,35.5,0,30V10z M29.1,9h-0.2
	c-0.5,0-1,0.1-1.5,0.3c-0.5,0.1-1.1,0.3-1.6,0.5c-1.4,0.5-2.9,1-4.3,1.5c-1.9,0.7-3.8,1.4-5.7,2c-0.9,0.3-1.8,0.6-2.7,0.9
	C12,14.6,11,15,9.9,15.3c-0.3,0.1-0.6,0.2-0.8,0.3c-0.3,0.1-0.6,0.2-0.9,0.3C8,16,7.9,16,7.7,16.1c-0.1,0.1-0.3,0.1-0.4,0.2
	c-0.6,0.5-1.1,1-1.3,1.7c0,0.3,0,0.7,0.1,1c0.1,0.2,0.2,0.5,0.3,0.7c0.2,0.4,0.5,0.7,0.8,0.9c0.5,0.4,1,0.7,1.6,0.9
	c0.1,0.1,0.2,0.1,0.4,0.1c0.5,0.2,0.9,0.4,1.4,0.6c0.9,0.4,1.7,0.8,2.6,1.2c0.4,0.2,0.9,0.4,1.3,0.6c0.3,0.2,0.7,0.4,0.9,0.7
	c0.3,0.3,0.5,0.7,0.7,1.1c0.1,0.1,0.1,0.3,0.2,0.4c0.4,0.9,0.9,1.9,1.3,2.8c0.2,0.4,0.4,0.8,0.6,1.2c0.3,0.7,0.6,1.3,1,1.9
	c0.3,0.4,0.5,0.8,0.9,1.1c0.2,0.2,0.5,0.4,0.7,0.5s0.4,0.2,0.6,0.2s0.3,0,0.5,0c0.6-0.1,1-0.4,1.4-0.9c0.2-0.2,0.3-0.4,0.4-0.7
	c0.1-0.2,0.2-0.4,0.3-0.7c0.1-0.2,0.2-0.4,0.3-0.7c0.1-0.3,0.3-0.6,0.4-1c0.2-0.4,0.3-0.9,0.5-1.3c0.3-0.9,0.6-1.9,1-2.8
	c0.2-0.5,0.4-1,0.5-1.5c0.9-2.5,1.8-5.1,2.7-7.6c0.2-0.5,0.3-1,0.5-1.5c0.1-0.4,0.3-0.9,0.4-1.3c0.1-0.3,0.2-0.5,0.2-0.8
	c0.1-0.2,0.1-0.4,0.2-0.7c0-0.2,0.1-0.4,0.1-0.5c0.1-0.2,0.1-0.5,0.1-0.7c0.1-0.6,0-1.2-0.3-1.7c-0.1-0.2-0.2-0.3-0.4-0.4
	c-0.1-0.1-0.3-0.2-0.4-0.2C29.6,9.1,29.4,9,29.1,9z"/>
</svg>
