<?xml version="1.0" encoding="utf-8"?>
<!-- Generator: Adobe Illustrator 22.1.0, SVG Export Plug-In . SVG Version: 6.00 Build 0)  -->
<svg version="1.1" id="Layer_1" xmlns="http://www.w3.org/2000/svg" xmlns:xlink="http://www.w3.org/1999/xlink" x="0px" y="0px"
	 viewBox="0 0 24 24" style="enable-background:new 0 0 24 24;" xml:space="preserve">
<path d="M19,8l-4,4h3c0,3.3-2.7,6-6,6c-1,0-1.9-0.2-2.8-0.7l-1.5,1.5C9,19.6,10.5,20,12,20c4.4,0,8-3.6,8-8h3L19,8z M6,12
	c0-3.3,2.7-6,6-6c1,0,2,0.3,2.8,0.7l1.5-1.5C15,4.4,13.5,4,12,4c-4.4,0-8,3.6-8,8H1l4,4l4-4H6z"/>
</svg>
