<?xml version="1.0" encoding="utf-8"?>
<!-- Generator: Adobe Illustrator 22.1.0, SVG Export Plug-In . SVG Version: 6.00 Build 0)  -->
<svg version="1.1" id="Layer_1" xmlns="http://www.w3.org/2000/svg" xmlns:xlink="http://www.w3.org/1999/xlink" x="0px" y="0px"
	 viewBox="0 0 24 24" style="enable-background:new 0 0 24 24;" xml:space="preserve">
<style type="text/css">
	.st0{fill:#00C3C6;}
</style>
<path class="st0" d="M8,10.5H5v-3H3v3H0v2h3v3h2v-3h3V10.5z M18,11.5c1.7,0,3-1.3,3-3s-1.3-3-3-3c-0.3,0-0.6,0.1-0.9,0.1
	C17.7,6.4,18,7.4,18,8.5s-0.3,2-0.9,2.9C17.4,11.4,17.7,11.5,18,11.5z M13,11.5c1.7,0,3-1.3,3-3s-1.3-3-3-3s-3,1.3-3,3
	S11.3,11.5,13,11.5z M19.6,13.7c0.8,0.7,1.4,1.7,1.4,2.8v2h3v-2C24,15,21.6,14,19.6,13.7z M13,13.5c-2,0-6,1-6,3v2h12v-2
	C19,14.5,15,13.5,13,13.5z"/>
</svg>
