<?xml version="1.0" encoding="utf-8"?>
<!-- Generator: Adobe Illustrator 22.1.0, SVG Export Plug-In . SVG Version: 6.00 Build 0)  -->
<svg version="1.1" id="Layer_1" xmlns="http://www.w3.org/2000/svg" xmlns:xlink="http://www.w3.org/1999/xlink" x="0px" y="0px"
	 viewBox="0 0 202.2 39.9" style="enable-background:new 0 0 202.2 39.9;" xml:space="preserve">
<style type="text/css">
	.st0{fill:url(#SVGID_1_);}
	.st1{fill:#00C3C6;}
	.st2{fill:#424242;}
</style>
<g>
	
		<linearGradient id="SVGID_1_" gradientUnits="userSpaceOnUse" x1="-1454.9304" y1="410.6475" x2="-1454.9304" y2="409.6476" gradientTransform="matrix(55.7814 0 0 -39.9108 81332.3594 16389.3594)">
		<stop  offset="0" style="stop-color:#FF3F26"/>
		<stop  offset="1" style="stop-color:#FF9214"/>
	</linearGradient>
	<path class="st0" d="M183.4,0.3c7.1,6.5,4.2,19.3-6.3,28.5c-10,8.7-23.3,11.1-30.7,5.9c6.3,5.9,19.6,7,32.9,2.2
		c16-5.8,25.9-18.1,22.1-27.5c-2.3-5.8-9.4-9.1-18.2-9.4C183.2,0.2,183.3,0.3,183.4,0.3L183.4,0.3z"/>
	<path class="st1" d="M172.2,5c-5.3-2.6-13.8-0.8-20.8,4.8c-8.3,6.7-11.3,16.3-6.6,21.4c3.7,4.1,11.2,4.2,18.3,0.5
		c2-1,3.9-2.3,5.6-3.7c-2,0.4-3.7,0.1-5-1c-1.5-1.2-1.8-3.1-1.5-4.9c0.4-2.5,1.8-4.9,3.6-6.8c1.8-1.8,4.1-3.4,6.7-4
		c1.6-0.4,3.4-0.4,4.8,0.4c0.4-1.1,0.5-2.1,0.2-2.9c-0.2-0.4-0.4-0.7-0.7-1c-2.3-2.3-8.8-1.9-15.7,1.1c-0.7,0.3-1.4,0.6-2,1
		C162.4,7.2,167.6,4.6,172.2,5"/>
	<path class="st2" d="M15.8,12c1.9,0,3.5,1.4,3.5,3.1s-1.6,3.1-3.5,3.1s-3.5-1.4-3.5-3.1C12.2,13.4,13.8,12,15.8,12z M0,22.6
		c0,4.6,7.9,8,15.8,8c7.9-0.1,15.8-3.4,15.8-8V11.7l-2.7,0.6c-2.2,0.5-2.6,2.3-2.6,3.3v6.3c0,3.6-5.2,5.3-10.5,5.3
		c-5.2,0-10.5-1.7-10.5-5.3v-7.3l-2.7,0.5C0.4,15.6,0,17.4,0,18.5V22.6z M115.5,27.8c-1.2,0-2.3,0.5-2.9,1.4
		c-0.6-0.8-1.7-1.4-2.9-1.4s-2.3,0.5-2.9,1.4c-0.6-0.8-1.7-1.4-2.9-1.4c-1.9,0-3.5,1.4-3.5,3.1c0,1.7,1.6,3.1,3.5,3.1
		c1.2,0,2.3-0.5,2.9-1.4c0.6,0.8,1.7,1.4,2.9,1.4c1.2,0,2.3-0.5,2.9-1.4c0.6,0.8,1.7,1.4,2.9,1.4c1.9,0,3.5-1.4,3.5-3.1
		S117.5,27.8,115.5,27.8L115.5,27.8z M81.4,15.6v9.1c0,1.5-0.6,3.7-3.7,4.4v1.5l2.2-0.5c6-1.3,6.8-2.8,6.8-6.2V11.7L84,12.3
		C81.8,12.8,81.4,14.6,81.4,15.6L81.4,15.6z M34.9,10v15.5l2.7-0.6c2.2-0.5,2.6-2.3,2.6-3.3V6.1l-2.7,0.6C35.3,7.2,34.9,9,34.9,10z
		 M67.7,8.9c-1.2,0-2.3,0.5-2.9,1.4c-0.6-0.8-1.7-1.4-2.9-1.4c-1.9,0-3.5,1.4-3.5,3.1s1.6,3.1,3.5,3.1c1.2,0,2.3-0.5,2.9-1.4
		c0.6,0.8,1.7,1.4,2.9,1.4c1.9,0,3.5-1.4,3.5-3.1C71.2,10.4,69.6,8.9,67.7,8.9z M78,19.1c0,4.3-3,6.4-7.2,6.4H48.7
		C48.4,27.8,47,29,42,30.1l-2.2,0.5v-1.5c3.1-0.7,3.7-2.9,3.7-4.4v-9.1c0-1,0.4-2.8,2.6-3.3l2.7-0.6v9.8h21.7c1.2,0,2.2-0.8,2.2-1.8
		v-4.1c0-1,0.4-2.8,2.6-3.3l2.7-0.6L78,19.1L78,19.1z M122.8,21.5c-0.4-2.1-2.8-5.8-7.4-5.7c-1,0-2.1,0.1-3.8,0.4
		c-0.5,0.1-2.5,0.5-4.3,0.8c-4.1,0.8-5.3-1-6.9-2.6c3.7-0.8,7.4-1.6,9.3-2c2.7-0.6,5.1-1,7.5-0.7c6.8,0.8,10.6,5.3,12.8,13.7H97
		c-4.2,0-6.9-2.3-6.9-6.6V10c0-1,0.4-2.8,2.6-3.3l2.6-0.6v13.7c0,1,1,1.8,2.2,1.8L122.8,21.5L122.8,21.5L122.8,21.5z"/>
</g>
</svg>
