<svg xmlns="http://www.w3.org/2000/svg" width="48" height="48" viewBox="0 0 48 48">
    <defs>
        <radialGradient id="a" cx="49.982%" cy="49.978%" r="50.007%" fx="49.982%" fy="49.978%">
            <stop offset="0%" stop-color="#F4B31B"/>
            <stop offset="100%" stop-color="#CC932B"/>
        </radialGradient>
        <linearGradient id="b" x1="50.021%" x2="50.021%" y1="99.939%" y2="-.056%">
            <stop offset="0%" stop-color="#6E2616"/>
            <stop offset="100%" stop-color="#9B4722"/>
        </linearGradient>
        <linearGradient id="c" x1="50.061%" x2="50.061%" y1=".043%" y2="100.033%">
            <stop offset="0%" stop-color="#6E2616"/>
            <stop offset="100%" stop-color="#9B4722"/>
        </linearGradient>
    </defs>
    <g fill="none" fill-rule="nonzero">
        <path fill="url(#a)" d="M6.679 0h34.642C44.981 0 48 3.02 48 6.679V41.32C48 44.981 44.981 48 41.321 48H6.679C3.019 48 0 44.98 0 41.321V6.68c-.003-1.771.7-3.47 1.952-4.724A6.682 6.682 0 0 1 6.68 0"/>
        <path fill="url(#b)" d="M46 22v18.918a5.095 5.095 0 0 1-1.47 3.594A5.002 5.002 0 0 1 40.973 46H7.027a5.002 5.002 0 0 1-3.558-1.488A5.095 5.095 0 0 1 2 40.92v-7.892c1.854-20.216 20.965.253 29.844.253C38.904 33.242 43.11 27.766 46 22"/>
        <path fill="url(#c)" d="M7.06 2h33.916A5.028 5.028 0 0 1 46 7.043v7.583c-1.568 20.96-20.913.036-29.855.036C9.126 14.662 4.922 20.277 2 26V7.043c.036-2.754 2.316-5.042 5.06-5.042"/>
    </g>
</svg>
