<svg xmlns="http://www.w3.org/2000/svg" width="48" height="48" viewBox="0 0 48 48">
    <g fill="none" fill-rule="evenodd">
        <path fill="#C33B35" d="M41.02 7.45c.103.051.492.28.591.333 2.025 1.083 3.224 2.644 3.241 4.89v35.136l-16.314.016-4.04-.015V33.337c-.016-5.216.63-9.638 2.24-12.902 0 0 1.669 1.708 2.344 4.767.649-1.775 1.88-3.178 3.694-4.211 1.2 6.972-1.608 10.375-6.236 12.155V45.94l16.314-.015V14.448c-.018-2.355-1.337-3.958-3.545-5.046l1.71-1.952zm-34.189 0l1.711 1.952c-2.208 1.088-3.527 2.69-3.545 5.046v31.476l16.314.015V33.146c-4.628-1.78-7.436-5.183-6.237-12.155 1.814 1.033 3.046 2.436 3.695 4.21.675-3.058 2.343-4.766 2.343-4.766 1.611 3.264 2.256 7.686 2.241 12.902V47.81l-4.04.015-16.314-.016V12.673c.017-2.246 1.216-3.807 3.24-4.89.1-.053.489-.282.592-.333zm21.776 5.927a17.164 17.164 0 0 1-2.09-4.597c2.34-1.787 3.887-4.302 4.89-7.315.096 2.553.392 5.026 1.045 7.356-1.518 1.282-2.772 2.829-3.845 4.556zm-9.708 0c-1.073-1.727-2.327-3.274-3.846-4.556.654-2.33.95-4.803 1.046-7.356 1.003 3.013 2.55 5.528 4.89 7.315a17.164 17.164 0 0 1-2.09 4.597z"/>
        <path fill="#161715" d="M43.064 4.43c-4.537 3.734-7.503 8.343-7.962 14.655-.18 2.485-.63 3.944-1.253 5.199l-.356-4.888c-1.01.34-1.74.866-2.342 1.477-.645-1.434-2.257-1.74-4.53-1.273 3.705-9.2 9.072-14.524 16.443-15.17zm-9.822 3.678c-.713-1.741-1.1-3.591-.767-5.68.464-2.374 7.474-.582 5.225 2.191l-4.458 3.489zM26.18 7.86a13.303 13.303 0 0 1-1.369-6.017c.024-2.84 6.021-1.815 5.162.502-.814 2.19-2.13 3.987-3.793 5.515zM4.442 4.43c7.371.646 12.738 5.97 16.443 15.17-2.273-.467-3.886-.161-4.53 1.273a5.782 5.782 0 0 0-2.342-1.477l-.356 4.888c-.622-1.255-1.073-2.714-1.253-5.199-.46-6.312-3.425-10.921-7.962-14.656zm9.822 3.678L9.806 4.619c-2.249-2.773 4.76-4.565 5.225-2.192.332 2.09-.055 3.94-.767 5.68zm7.062-.248c-1.663-1.528-2.979-3.326-3.793-5.515-.86-2.317 5.138-3.343 5.162-.502a13.3 13.3 0 0 1-1.37 6.017zm2.37 11.183c-.871.336-1.418.746-1.793 1.23-.654-2.02-1.416-4.026-2.512-5.996 2.167-3.908 3.37-8.137 4.306-12.455.934 4.318 2.138 8.547 4.305 12.455-1.096 1.97-1.857 3.977-2.512 5.996-.375-.484-.922-.894-1.793-1.23z"/>
    </g>
</svg>
