<svg xmlns="http://www.w3.org/2000/svg" width="48" height="48" viewBox="0 0 48 48">
    <g fill="none" fill-rule="evenodd">
        <path fill="#90D2F0" d="M12.655 25.69l6.507-2.962c2.896-8.91-.069-15.166-7.68-17.141-3.765 7.499-4.45 15.21 1.173 20.102"/>
        <path fill="#90D2F0" d="M11.56 28.505l5.162-1.525-.313-4.733c-1.46-8.294-6.127-9.774-12.593-7.43-.147 7.593 2.259 12.352 7.744 13.688"/>
        <path fill="#90D2F0" d="M11.794 31.243l3.246-3.766-1.056-3.587c-4.758-5.25-9.06-4.683-12.984.704 2.184 5.752 5.69 8.197 10.794 6.649"/>
        <path fill="#90D2F0" d="M13.28 33.12l3.436-5.632-4.921-1.955C5.66 25.07 2.623 27.95 1.705 33.12c3.402 3.195 7.13 4.107 11.576 0"/>
        <path fill="#90D2F0" d="M15.94 34.137l.268-5.815-4.341-.213c-6.145 2.498-7.747 6.867-6.8 12.285 4.832 1.259 8.753-.006 10.873-6.257"/>
        <path fill="#90D2F0" d="M18.99 33.59l-1.642-4.786-4.47.803c-5.563 5.46-4.96 10.777-1.553 16.028 5.42-1.203 7.962-5.144 7.666-12.046"/>
        <path fill="#90D2F0" d="M21.175 30.639l-4.967-2.317-2.928 4.798c-1.327 6.721 2.278 11.547 6.962 14.627 5.2-4.627 6.006-11.751.933-17.108"/>
        <path fill="#90D2F0" d="M22.733 27.453l-5.088.228-1.705 6.456c1.261 6.065 7.812 10.282 16.191 10.95 1.614-7.977-.162-14.454-9.398-17.634"/>
        <path fill="#90D2F0" d="M22.198 23.968l-5.476 3.012 2.269 6.61c3.712 4.662 14.043 5.714 24.013.547-3.702-9.439-12.202-13.22-20.806-10.169"/>
        <path fill="#90D2F0" d="M17.739 24.985l.782 4.772c10.643 4.47 21.897-2.385 27.924-12.672-10.406-5.873-23.566-1.714-28.706 7.9"/>
        <path fill="#90D2F0" d="M14.923 25.61l3.598 2.739c11.737-1.164 19.577-12.447 20.103-25.735-11.965 3.129-20.706 9.855-23.7 22.997"/>
        <path fill="#90D2F0" d="M13.985 23.89l5.944 1.72C28.977 16.684 29.811 6.92 23.84 0c-7.294 5.714-11.896 15.49-9.855 23.89"/>
        <path fill="#00A2E1" d="M18.257 28.148l.264.2c8.02-.795 14.218-6.314 17.509-13.968-7.549.03-14.785 4.048-18.29 10.605l.517 3.163z"/>
        <path fill="#00A2E1" d="M13.985 23.89l1.604.464 3.574-1.626c2.082-6.41 1.133-11.446-2.399-14.503-2.798 4.911-4.023 10.544-2.78 15.665"/>
        <path fill="#00A2E1" d="M15.258 24.259l4.671 1.352c6.186-6.104 8.531-12.599 7.489-18.308-5.814 3.686-10.065 9.118-12.16 16.956"/>
        <path fill="#00A2E1" d="M12.655 25.69l3.866-1.76-.112-1.682c-1.056-6.002-3.791-8.435-7.672-8.434-.667 4.573.368 8.786 3.918 11.875"/>
        <path fill="#00A2E1" d="M11.56 28.505l3.48-1.028-1.055-3.587c-3.396-3.747-6.56-4.53-9.519-2.714 1.043 3.912 3.351 6.417 7.094 7.329"/>
        <path fill="#00A2E1" d="M11.794 31.243l3.246-3.766-.218-.742-3.028-1.202c-4.136-.312-6.864.896-8.484 3.302 2.104 2.613 4.9 3.494 8.484 2.408"/>
        <path fill="#00A2E1" d="M13.28 33.12l2.928-4.798-4.341-.213c-4.107 1.67-6.184 4.174-6.828 7.269 2.496 1.012 5.2.552 8.242-2.258"/>
        <path fill="#00A2E1" d="M15.94 34.137l.236-5.123-3.297.593C9.02 33.394 8.13 37.112 9.08 40.786c2.974-.312 5.365-2.24 6.86-6.65"/>
        <path fill="#00A2E1" d="M18.99 33.59l-1.621-4.727-.098-.045-1.534.275-2.456 4.027c-.837 4.233.285 7.715 2.4 10.482 2.41-2.028 3.51-5.342 3.31-10.013"/>
        <path fill="#00A2E1" d="M21.175 30.639l-3.839-1.791-1.396 5.289c.792 3.81 3.673 6.891 7.782 8.821 1.666-4.004.985-8.59-2.547-12.32"/>
        <path fill="#00A2E1" d="M22.733 27.453l-5.088.228-.297 1.123 1.643 4.785c2.375 2.984 7.462 4.49 13.43 3.832-.798-4.398-3.647-7.888-9.688-9.968"/>
        <path fill="#00A2E1" d="M22.198 23.968l-4.243 2.334.566 3.455c6.715 2.82 13.673 1.13 19.408-3.082-4.259-3.73-9.971-4.749-15.731-2.707"/>
        <path fill="#0060B0" d="M26.185 16.79c-3.546 1.83-6.542 4.637-8.442 8.188l2.186.633c2.933-2.894 5.002-5.876 6.256-8.82M13.985 23.89l1.603.464.933-.424-.112-1.682c-.498-2.83-1.37-4.866-2.558-6.228-.493 2.648-.485 5.322.134 7.87"/>
        <path fill="#0060B0" d="M15.258 24.259l.33.096 3.574-1.627c1.06-3.263 1.335-6.17.883-8.64-2.1 2.826-3.722 6.188-4.787 10.17M12.655 25.69l1.64-.747-.31-1.053c-1.66-1.831-3.265-2.954-4.817-3.412.631 1.944 1.762 3.71 3.487 5.211M11.56 28.505l3.48-1.028-.218-.742-3.027-1.202c-1.862-.14-3.437.027-4.756.473 1.17 1.207 2.67 2.048 4.52 2.499"/>
        <path fill="#0060B0" d="M11.794 31.243l2.595-3.01-2.523-.124c-2.168.882-3.772 1.997-4.896 3.31 1.417.419 3.02.37 4.824-.176"/>
        <path fill="#0060B0" d="M13.28 33.12l2.457-4.026-2.858.513c-2.074 2.035-3.29 4.05-3.824 6.05 1.338-.355 2.742-1.166 4.226-2.537"/>
        <path fill="#0060B0" d="M15.94 34.137l.236-5.123-.44.08-2.456 4.026c-.404 2.047-.35 3.918.052 5.617 1.039-1.063 1.919-2.567 2.608-4.6M18.99 33.59l-1.621-4.727-.032-.015-1.397 5.289c.384 1.844 1.256 3.518 2.52 4.972.445-1.565.621-3.403.53-5.52"/>
        <path fill="#0060B0" d="M21.175 30.639l-3.807-1.776 1.622 4.726c1.201 1.508 3.094 2.638 5.443 3.303-.375-2.18-1.437-4.33-3.258-6.253"/>
        <path fill="#0060B0" d="M22.733 27.453l-4.556.204.344 2.1c3.421 1.436 6.905 1.702 10.258 1.06-1.5-1.348-3.486-2.483-6.046-3.364"/>
        <path fill="#0060B0" d="M22.198 23.968l-4.243 2.334.303 1.846.263.2c4.468-.442 8.37-2.352 11.52-5.28-2.511-.334-5.172-.046-7.843.9"/>
        <path fill="#FFF" d="M16.681 20.047c-.709 1.174-1.13 2.451-1.315 3.814-.654-.84-1.441-1.546-2.32-2.16-.042 1.208.12 2.4.527 3.57-.984-.3-1.968-.406-2.952-.442.492.948 1.136 1.743 1.964 2.353-1.02.289-1.953.69-2.824 1.167.86.424 1.767.778 2.776.978a13.539 13.539 0 0 0-1.913 2.662c.958-.43 2.093-.647 2.939-1.377-.302 1.2-.655 2.146-.62 3.459.78-.72 1.527-1.45 2.042-2.244.237 1.182.654 2.184 1.153 3.103.488-.981.864-1.995 1.09-3.05.651.86 1.397 1.652 2.311 2.325a9.481 9.481 0 0 0-.202-3.41c1.084.494 2.168.8 3.252.917-.842-1.096-1.79-2.101-2.894-2.972a14.006 14.006 0 0 0 3.977-.942c-1.159-.475-2.356-.88-3.665-1.092 1.22-1.036 2.244-2.18 3.05-3.441a13.568 13.568 0 0 0-3.988 1.564 15.16 15.16 0 0 0 1.251-4.537 14.889 14.889 0 0 0-3.17 3.352c.095-1.219-.077-2.417-.469-3.597"/>
    </g>
</svg>
